<svg width="91" height="54" viewBox="0 0 91 54" fill="none" xmlns="http://www.w3.org/2000/svg">
<g clip-path="url(#clip0_5_1434)">
<path fill-rule="evenodd" clip-rule="evenodd" d="M65.7632 2.44737C66.7892 2.41295 67.7891 2.54463 68.7632 2.8421C68.9776 2.98958 69.1882 3.12126 69.3947 3.23684C68.1499 3.04342 66.9393 2.78037 65.7632 2.44737Z" fill="white"/>
<path fill-rule="evenodd" clip-rule="evenodd" d="M74.921 28.1842C74.8157 28.1842 74.7106 28.1842 74.6053 28.1842C74.5723 27.9597 74.4933 27.7492 74.3684 27.5526C73.989 26.9951 73.5415 26.5214 73.0263 26.1316C72.8823 25.8008 72.698 25.485 72.4737 25.1842C72.3677 25.0655 72.2362 25.0127 72.0789 25.0263C72.1025 24.8602 72.0763 24.7023 72 24.5526C71.6234 24.0981 71.2813 23.6244 70.9737 23.1316C70.8442 22.8726 70.7127 22.6094 70.5789 22.3421C70.1997 22.0465 69.8575 21.7307 69.5526 21.3947C69.1811 21.0221 68.8653 20.601 68.6053 20.1316C68.4758 19.8726 68.3443 19.6094 68.2105 19.3421C67.8313 19.0465 67.4891 18.7307 67.1842 18.3947C66.6579 17.8157 66.1315 17.2369 65.6053 16.6579C65.5963 16.4828 65.5437 16.3249 65.4474 16.1842C65.2967 15.789 65.0863 15.4206 64.8158 15.079C64.8987 14.9697 65.004 14.8907 65.1316 14.8421C64.8493 14.5528 64.6386 14.2108 64.5 13.8158C64.1986 13.6819 63.8828 13.6292 63.5526 13.6579C63.4715 13.3108 63.3136 12.9951 63.0789 12.7105C63.1119 12.618 63.1647 12.5391 63.2368 12.4737C62.6664 11.8808 62.1927 11.223 61.8158 10.5C61.8488 10.4075 61.9015 10.3285 61.9737 10.2632C61.278 10.0407 60.8569 9.567 60.7105 8.84211C60.5608 8.76585 60.4029 8.73964 60.2368 8.76316C60.2616 8.54637 60.2353 8.33574 60.1579 8.13158C59.8421 7.92111 59.5263 7.71048 59.2105 7.5C58.5608 7.69642 57.903 7.69642 57.2368 7.5C55.9299 7.72674 54.6668 8.04253 53.4474 8.44737C53.036 8.46648 52.7203 8.62437 52.5 8.92106C52.0663 8.97048 51.6452 8.9179 51.2368 8.76316C51.3358 8.61837 51.3886 8.46048 51.3947 8.28948C52.9683 6.39995 54.863 4.92616 57.0789 3.86843C57.8199 3.80764 58.5041 3.59716 59.1316 3.23685C59.552 3.29985 59.9468 3.29985 60.3158 3.23685C61.3557 3.54253 62.4084 3.54253 63.4737 3.23685C63.6673 3.25974 63.8515 3.31232 64.0263 3.39474C64.4023 3.096 64.8232 3.01706 65.2895 3.1579C65.1842 3.21048 65.079 3.26321 64.9737 3.31579C65.8225 3.43974 66.6646 3.59764 67.5 3.78948C69.1768 4.56206 70.8084 5.40411 72.3947 6.31579C73.3598 7.33279 74.3861 8.30653 75.4737 9.23685C75.8042 9.59653 76.041 10.0175 76.1842 10.5C76.3421 10.579 76.5 10.6579 76.6579 10.7368C76.6053 10.7894 76.5526 10.8422 76.5 10.8947C76.683 11.1832 76.8935 11.4463 77.1316 11.6842C77.0594 11.7496 77.0067 11.8285 76.9737 11.9211C77.6345 12.7276 78.1345 13.6224 78.4737 14.6053C78.7263 16.2358 78.7001 17.9201 78.3947 19.6579C78.4623 19.9557 78.5149 20.2451 78.5526 20.5263C78.35 20.7057 78.1922 20.9162 78.0789 21.1579C78.2166 21.7533 78.2166 22.3322 78.0789 22.8947C77.7902 23.4044 77.5007 23.9043 77.2105 24.3947C77.2206 25.0431 77.0364 25.6221 76.6579 26.1316C75.8384 26.0278 75.4175 26.4226 75.3947 27.3158C75.4328 27.6291 75.5381 27.9185 75.7105 28.1842C75.4587 28.3317 75.1956 28.3317 74.921 28.1842Z" fill="white"/>
<path fill-rule="evenodd" clip-rule="evenodd" d="M59.4474 2.92102C59.3421 3.02634 59.2369 3.13149 59.1316 3.23681C58.5041 3.59713 57.8199 3.8076 57.0789 3.86839C57.2762 3.61007 57.5394 3.42581 57.8684 3.31576C58.3858 3.13528 58.9121 3.0036 59.4474 2.92102Z" fill="white"/>
<path fill-rule="evenodd" clip-rule="evenodd" d="M65.7632 2.44732C66.9393 2.78032 68.1499 3.04338 69.3947 3.2368C71.0492 4.09874 72.6281 5.09869 74.1316 6.2368C74.4999 6.71048 74.9211 7.13159 75.3947 7.49996C75.7271 7.89896 76.0956 8.26732 76.5 8.60522C76.8011 9.1539 77.1433 9.68032 77.5263 10.1842C78.1219 11.3065 78.6218 12.4643 79.0263 13.6578C79.9135 16.9781 79.8346 20.2938 78.7895 23.6052C78.2326 24.7189 77.6799 25.8241 77.1316 26.921C76.6945 27.4487 76.2736 28.0013 75.8684 28.5789C75.4247 28.7226 75.1089 28.5911 74.9211 28.1842C75.1956 28.3316 75.4587 28.3316 75.7105 28.1842C75.5381 27.9184 75.4328 27.629 75.3947 27.3157C75.4175 26.4225 75.8384 26.0278 76.6579 26.1315C77.0364 25.622 77.2206 25.043 77.2105 24.3947C77.5007 23.9043 77.7902 23.4044 78.0789 22.8947C78.2166 22.3321 78.2166 21.7533 78.0789 21.1579C78.1922 20.9161 78.3501 20.7056 78.5526 20.5263C78.5149 20.2451 78.4623 19.9556 78.3947 19.6579C78.7001 17.9201 78.7263 16.2358 78.4737 14.6052C78.1345 13.6223 77.6345 12.7275 76.9737 11.921C77.0067 11.8285 77.0594 11.7495 77.1316 11.6842C76.8935 11.4462 76.683 11.1832 76.5 10.8947C76.5526 10.8421 76.6053 10.7894 76.6579 10.7368C76.5 10.6579 76.3421 10.5789 76.1842 10.5C76.041 10.0174 75.8042 9.59648 75.4737 9.2368C74.3861 8.30648 73.3598 7.33275 72.3947 6.31575C70.8084 5.40406 69.1768 4.56201 67.5 3.78943C66.6646 3.59759 65.8225 3.43969 64.9737 3.31574C65.079 3.26317 65.1842 3.21043 65.2895 3.15785C64.8232 3.01701 64.4023 3.09596 64.0263 3.39469C63.8515 3.31227 63.6673 3.25969 63.4737 3.2368C62.4084 3.54248 61.3557 3.54248 60.3158 3.2368C59.9468 3.2998 59.5521 3.2998 59.1316 3.2368C59.2369 3.13148 59.3421 3.02632 59.4474 2.92101C60.0586 2.70943 60.6902 2.5779 61.3421 2.52627C62.8148 2.44732 64.2886 2.42111 65.7632 2.44732Z" fill="white"/>
<path fill-rule="evenodd" clip-rule="evenodd" d="M74.1316 6.23682C74.7106 6.50003 75.1315 6.92097 75.3947 7.49997C74.9211 7.13161 74.4999 6.7105 74.1316 6.23682Z" fill="white"/>
<path fill-rule="evenodd" clip-rule="evenodd" d="M12.2368 9.86839C12.2368 9.92097 12.2368 9.9737 12.2368 10.0263C11.9773 10.0601 11.7404 10.0073 11.5263 9.86839C11.1782 9.23002 11.0992 8.57207 11.2895 7.8947C11.4922 7.7867 11.6765 7.81307 11.8421 7.97365C12.0974 8.5746 12.2289 9.20618 12.2368 9.86839Z" fill="white"/>
<path fill-rule="evenodd" clip-rule="evenodd" d="M58.8158 8.28945C58.0672 8.32656 57.3303 8.43187 56.6053 8.60524C55.9279 8.55756 55.2963 8.66271 54.7105 8.92103C54.6579 8.92103 54.6052 8.92103 54.5526 8.92103C53.3902 9.04956 52.2324 9.20745 51.0789 9.39471C50.9075 9.37577 50.8022 9.27045 50.7632 9.07892C50.7699 8.93429 50.8225 8.82898 50.9211 8.76314C50.9211 8.92103 50.9211 9.07892 50.9211 9.23682C51.4754 9.17382 52.0017 9.0685 52.5 8.92103C53.9973 8.75271 55.4711 8.51587 56.9211 8.2105C57.5825 8.08229 58.2141 8.10866 58.8158 8.28945Z" fill="white"/>
<path fill-rule="evenodd" clip-rule="evenodd" d="M15.3947 9.07901C15.4306 9.46316 15.2727 9.72622 14.9211 9.86848C14.7106 9.86848 14.4999 9.86848 14.2895 9.86848C14.2203 8.83316 14.5887 7.99111 15.3947 7.34216C15.4473 7.52643 15.5001 7.71053 15.5526 7.89479C15.4868 8.28922 15.4341 8.68395 15.3947 9.07901Z" fill="white"/>
<path fill-rule="evenodd" clip-rule="evenodd" d="M59.1316 8.28948C59.0263 8.28948 58.9211 8.28948 58.8158 8.28948C58.2141 8.10869 57.5825 8.08232 56.9211 8.21053C55.4711 8.5159 53.9973 8.75274 52.5 8.92106C52.7203 8.62437 53.0361 8.46648 53.4474 8.44737C54.9491 8.25395 56.4491 8.04348 57.9474 7.8158C58.2895 7.86837 58.6315 7.92111 58.9737 7.97369C59.031 8.08153 59.0836 8.18685 59.1316 8.28948Z" fill="white"/>
<path fill-rule="evenodd" clip-rule="evenodd" d="M56.6053 8.60527C56.0061 8.78164 55.3745 8.8868 54.7105 8.92106C55.2963 8.66275 55.9279 8.55759 56.6053 8.60527Z" fill="white"/>
<path fill-rule="evenodd" clip-rule="evenodd" d="M51.3947 8.28943C51.3886 8.46043 51.3358 8.61832 51.2368 8.76311C51.6452 8.91785 52.0663 8.97043 52.5 8.92101C52.0017 9.06848 51.4754 9.1738 50.9211 9.2368C50.9211 9.0789 50.9211 8.92101 50.9211 8.76311C51.0264 8.55264 51.1843 8.39474 51.3947 8.28943Z" fill="white"/>
<path fill-rule="evenodd" clip-rule="evenodd" d="M15.3947 7.02637C15.5964 7.21489 15.7017 7.47795 15.7105 7.81584C15.7292 8.28731 15.624 8.70826 15.3947 9.079C15.434 8.68395 15.4868 8.28921 15.5526 7.89479C15.5 7.71053 15.4473 7.52642 15.3947 7.34216C14.5887 7.9911 14.2203 8.83316 14.2895 9.86847C14.4999 9.86847 14.7106 9.86847 14.921 9.86847C14.7497 10.1972 14.5129 10.2499 14.2105 10.0264C14.1319 9.55553 14.1055 9.08184 14.1316 8.60531C14.373 7.942 14.7941 7.41574 15.3947 7.02637Z" fill="white"/>
<path fill-rule="evenodd" clip-rule="evenodd" d="M54.5526 8.92102C53.4472 9.31023 52.2894 9.5207 51.0789 9.5526C51.0789 9.50002 51.0789 9.44728 51.0789 9.3947C52.2324 9.20744 53.3902 9.04955 54.5526 8.92102Z" fill="white"/>
<path fill-rule="evenodd" clip-rule="evenodd" d="M9.71053 8.76312C10.8902 9.90249 11.2323 11.271 10.7368 12.8684C10.5616 13.1111 10.3247 13.2162 10.0263 13.1842C9.81585 12.921 9.60521 12.6579 9.39474 12.3947C9.70043 12.5145 9.98985 12.6724 10.2632 12.8684C10.4124 12.8044 10.5177 12.6991 10.579 12.5526C10.7512 11.6689 10.6459 10.8268 10.2632 10.0263C9.93316 9.82244 9.72253 9.92775 9.63158 10.3421C9.25911 9.79717 9.07485 9.92886 9.07895 10.7368C9.14748 11.2473 9.25279 11.7473 9.39474 12.2368C9.07279 12.014 8.9149 11.6982 8.92106 11.2894C8.811 10.338 8.9689 9.44333 9.39474 8.60522C9.50258 8.66254 9.6079 8.71512 9.71053 8.76312Z" fill="white"/>
<path fill-rule="evenodd" clip-rule="evenodd" d="M17.1316 11.4474C16.8267 11.917 16.4057 12.2591 15.8684 12.4737C15.6139 12.5874 15.3771 12.5612 15.1579 12.3948C14.7281 11.4037 14.9124 10.5614 15.7105 9.86844C15.3126 10.5976 15.1547 11.3871 15.2368 12.2369C15.8664 12.3141 16.2347 12.0509 16.3421 11.4474C16.5 11.4474 16.6579 11.4474 16.8158 11.4474C17.1153 10.6625 17.3258 9.84665 17.4474 9.00002C17.3948 8.92107 17.3421 8.84212 17.2895 8.76318C16.9408 9.07486 16.5725 9.36428 16.1842 9.6316C16.0345 9.70786 15.8766 9.73407 15.7105 9.71055C15.921 9.44734 16.1316 9.18428 16.3421 8.92107C16.5887 8.88428 16.7992 8.77897 16.9737 8.60528C17.229 8.52034 17.4922 8.46776 17.7632 8.44739C17.7376 9.49834 17.5271 10.4984 17.1316 11.4474Z" fill="white"/>
<path fill-rule="evenodd" clip-rule="evenodd" d="M9.71053 8.76311C9.60789 8.71511 9.50258 8.66253 9.39474 8.60522C8.96889 9.44332 8.811 10.338 8.92105 11.2894C8.76679 10.8494 8.71421 10.3757 8.76316 9.86838C8.75495 9.48895 8.80753 9.12059 8.92105 8.76311C9.04184 8.57996 9.19974 8.42206 9.39474 8.28943C9.61879 8.36917 9.72395 8.52706 9.71053 8.76311Z" fill="white"/>
<path fill-rule="evenodd" clip-rule="evenodd" d="M15.7105 9.86845C15.7105 9.81587 15.7105 9.76313 15.7105 9.71055C15.8766 9.73408 16.0345 9.70787 16.1842 9.6316C16.5725 9.36429 16.9408 9.07487 17.2895 8.76318C17.3421 8.84213 17.3948 8.92108 17.4474 9.00003C17.3258 9.84666 17.1153 10.6625 16.8158 11.4474C16.6579 11.4474 16.5 11.4474 16.3421 11.4474C16.2347 12.0509 15.8664 12.3141 15.2368 12.2369C15.1547 11.3871 15.3126 10.5976 15.7105 9.86845Z" fill="white"/>
<path fill-rule="evenodd" clip-rule="evenodd" d="M11.2895 7.1842C11.3948 7.1842 11.5 7.1842 11.6053 7.1842C11.9588 7.7171 12.222 8.29594 12.3947 8.92105C12.4413 9.27394 12.3886 9.58973 12.2368 9.86841C12.229 9.2062 12.0974 8.57463 11.8421 7.97368C11.6765 7.8131 11.4922 7.78673 11.2895 7.89473C11.0992 8.5721 11.1782 9.23005 11.5263 9.86841C11.7404 10.0074 11.9773 10.0601 12.2368 10.0263C12.1497 10.3742 11.9392 10.5057 11.6053 10.421C10.7061 9.40863 10.6009 8.32973 11.2895 7.1842Z" fill="white"/>
<path fill-rule="evenodd" clip-rule="evenodd" d="M19.0263 9.39478C19.1842 9.39478 19.3421 9.39478 19.5 9.39478C19.4408 10.1871 19.0724 10.7661 18.3947 11.1316C18.2501 11.1248 18.1448 11.0722 18.0789 10.9737C18.0542 10.7569 18.0805 10.5463 18.1579 10.3421C18.4372 10.0079 18.7266 9.69209 19.0263 9.39478Z" fill="white"/>
<path fill-rule="evenodd" clip-rule="evenodd" d="M7.02632 9.39478C7.62221 9.62183 7.99058 10.0429 8.13158 10.6579C8.13158 10.9211 8.13158 11.1842 8.13158 11.4474C7.63548 11.4002 7.29332 11.137 7.10527 10.6579C7.02679 10.2401 7.00042 9.81904 7.02632 9.39478Z" fill="white"/>
<path fill-rule="evenodd" clip-rule="evenodd" d="M58.8158 8.28943C58.8158 8.34201 58.8158 8.39474 58.8158 8.44732C58.5475 8.42206 58.2843 8.44827 58.0263 8.52627C58.0789 8.57885 58.1316 8.63159 58.1842 8.68417C57.7631 8.84206 57.7631 8.99995 58.1842 9.15785C57.8252 9.3718 57.8252 9.60864 58.1842 9.86838C57.7702 10.4932 57.2965 11.0722 56.7632 11.6052C55.1795 13.5565 53.6005 15.5038 52.0263 17.4473C52.2971 16.959 52.5076 16.4327 52.6579 15.8684C53.3419 15.6292 53.6313 15.1555 53.5263 14.4473C53.0526 14.4999 52.7894 14.7631 52.7368 15.2368C52.5789 15.2894 52.4211 15.3421 52.2632 15.3947C51.9707 14.9452 52.0497 14.5504 52.5 14.2105C52.6497 14.1342 52.8076 14.108 52.9737 14.1315C52.9295 13.6755 53.1399 13.4387 53.6053 13.421C53.4202 13.3548 53.2623 13.2497 53.1316 13.1052C53.3285 12.875 53.3285 12.6382 53.1316 12.3947C53.4088 12.4168 53.6719 12.3378 53.9211 12.1578C53.7437 11.993 53.5333 11.8878 53.2895 11.8421C53.8865 11.7841 53.9918 11.5736 53.6053 11.2105C53.7669 10.9946 53.688 10.8631 53.3684 10.8157C53.0739 10.9528 52.7845 10.9001 52.5 10.6578C52.2368 10.8683 51.9737 10.8683 51.7105 10.6578C51.5561 10.7332 51.4246 10.8383 51.3158 10.9736C50.9465 10.9754 50.5781 10.9754 50.2105 10.9736C48.9453 11.5845 47.6559 11.9531 46.3421 12.0789C46.2145 12.1275 46.1092 12.2065 46.0263 12.3157C43.9424 12.434 41.9162 12.776 39.9474 13.3421C39.7271 13.1344 39.5692 13.1872 39.4737 13.5C39.3081 13.3394 39.1238 13.313 38.9211 13.421C39.0264 13.4736 39.1315 13.5263 39.2368 13.5789C39.0369 13.6277 38.8527 13.7066 38.6842 13.8157C38.3643 13.7338 38.0485 13.6811 37.7368 13.6578C37.3571 13.7801 36.9624 13.859 36.5526 13.8947C36.1898 14.0662 35.874 14.303 35.6053 14.6052C35.5127 14.5722 35.4338 14.5195 35.3684 14.4473C34.8092 14.6494 34.2565 14.8863 33.7105 15.1578C34.1888 15.243 34.6625 15.3483 35.1316 15.4736C34.1894 15.6198 33.2683 15.5409 32.3684 15.2368C31.8412 15.4806 31.2886 15.5857 30.7105 15.5526C30.7353 15.3358 30.7089 15.1252 30.6316 14.921C30.471 15.3202 30.2867 15.3202 30.0789 14.921C29.9736 15.0789 29.8685 15.2368 29.7632 15.3947C29.3329 15.0964 28.9907 14.7279 28.7368 14.2894C28.638 14.6827 28.5065 14.6827 28.3421 14.2894C28.1271 14.5282 28.0743 14.765 28.1842 15C28.1013 15.1092 27.996 15.1882 27.8684 15.2368C27.2383 14.3818 27.0804 14.4871 27.3947 15.5526C27.6281 15.5112 27.8386 15.5638 28.0263 15.7105C27.8856 15.8826 27.7277 15.8826 27.5526 15.7105C27.1053 15.9183 26.9738 16.2341 27.1579 16.6578C26.2778 16.799 25.3304 16.799 24.3158 16.6578C24.1091 17.0354 23.9512 17.0354 23.8421 16.6578C23.7079 16.8963 23.5764 17.1331 23.4474 17.3684C23.6882 18.0134 23.925 18.0397 24.1579 17.4473C24.4066 18.0339 24.8541 18.3761 25.5 18.4736C25.4114 18.7209 25.5167 18.9314 25.8158 19.1052C26.2693 19.155 26.7166 19.2339 27.1579 19.3421C27.6044 19.1802 27.9992 19.2854 28.3421 19.6578C28.6401 19.4 28.8769 19.4526 29.0526 19.8157C29.4906 19.6162 29.7275 19.7741 29.7632 20.2894C28.8908 20.0494 27.9962 19.9441 27.0789 19.9736C25.239 19.6504 23.6337 18.861 22.2632 17.6052C22.0514 17.207 21.9199 16.7859 21.8684 16.3421C23.2513 16.1467 24.6196 15.8835 25.9737 15.5526C26.1088 13.7668 26.1616 11.9774 26.1316 10.1842C27.5668 10.0064 28.9879 9.74317 30.3947 9.39469C30.9371 9.53427 31.4634 9.71853 31.9737 9.94732C32.1287 11.1705 32.1813 12.4073 32.1316 13.6578C35.9098 12.9579 39.6993 12.3263 43.5 11.7631C44.2301 11.7216 44.9144 11.5637 45.5526 11.2894C46.0298 11.2414 46.5035 11.1625 46.9737 11.0526C47.3076 10.7052 47.6762 10.3894 48.0789 10.1052C49.068 9.85274 50.0679 9.66848 51.0789 9.55259C52.2894 9.52069 53.4472 9.31022 54.5526 8.92101C54.6052 8.92101 54.6579 8.92101 54.7105 8.92101C55.3745 8.88674 56.0061 8.78159 56.6053 8.60522C57.3303 8.43185 58.0672 8.32653 58.8158 8.28943Z" fill="white"/>
<path fill-rule="evenodd" clip-rule="evenodd" d="M9.39474 12.3948C9.39474 12.3422 9.39474 12.2894 9.39474 12.2369C9.25279 11.7474 9.14747 11.2473 9.07895 10.7369C9.07484 9.92892 9.25911 9.79724 9.63158 10.3421C9.72253 9.92782 9.93316 9.8225 10.2632 10.0263C10.6459 10.8269 10.7512 11.6689 10.5789 12.5527C10.5177 12.6992 10.4124 12.8045 10.2632 12.8685C9.98984 12.6725 9.70042 12.5146 9.39474 12.3948Z" fill="white"/>
<path fill-rule="evenodd" clip-rule="evenodd" d="M13.6579 10.5C13.6579 10.7104 13.6579 10.9211 13.6579 11.1315C13.4207 10.5915 13.1049 10.5388 12.7105 10.9736C12.8368 10.2693 13.1526 10.1114 13.6579 10.5Z" fill="white"/>
<path fill-rule="evenodd" clip-rule="evenodd" d="M52.0263 17.4473C50.9237 18.9702 49.7659 20.4438 48.5526 21.8684C48.3281 21.9014 48.1176 21.9803 47.9211 22.1052C47.6801 22.7673 47.2328 23.2146 46.5789 23.4473C46.5264 23.3947 46.4736 23.342 46.4211 23.2894C46.3434 23.455 46.3696 23.6129 46.5 23.7631C46.1867 23.9535 45.8709 23.9535 45.5526 23.7631C45.3718 23.9646 45.3718 24.175 45.5526 24.3947C45.1633 24.493 44.7949 24.6247 44.4474 24.7894C44.5611 25.1245 44.7453 25.2034 45 25.0263C45.3407 25.3727 45.2882 25.5832 44.8421 25.6578C44.4622 25.6258 44.1464 25.4679 43.8947 25.1842C43.7436 25.5329 43.5594 25.5067 43.3421 25.1052C42.7328 25.1422 42.1538 24.9843 41.6053 24.6315C41.082 24.1076 40.4766 23.7129 39.7895 23.4473C39.7094 23.2111 39.7884 23.0268 40.0263 22.8947C39.4408 22.6965 38.8882 22.4597 38.3684 22.1842C38.1212 22.2727 37.9107 22.1674 37.7368 21.8684C37.4034 22.2508 37.0876 22.2508 36.7895 21.8684C36.5185 22.0345 36.3606 21.9293 36.3158 21.5526C35.7944 21.4 35.2944 21.4 34.8158 21.5526C34.4583 21.4375 34.2478 21.2532 34.1842 20.9999C33.4704 20.9428 32.7335 20.8375 31.9737 20.6842C32.148 20.5056 32.0954 20.3739 31.8158 20.2894C31.1681 20.2649 30.5365 20.2649 29.9211 20.2894C29.8685 20.2894 29.8157 20.2894 29.7632 20.2894C29.7275 19.774 29.4906 19.6162 29.0526 19.8157C28.8769 19.4526 28.6401 19.4 28.3421 19.6578C27.9992 19.2854 27.6044 19.1802 27.1579 19.342C26.7166 19.2339 26.2693 19.1549 25.8158 19.1052C25.5167 18.9314 25.4114 18.7209 25.5 18.4736C24.8541 18.376 24.4066 18.0339 24.1579 17.4473C23.925 18.0397 23.6882 18.0134 23.4474 17.3684C23.5764 17.1331 23.7079 16.8963 23.8421 16.6578C23.9512 17.0354 24.1091 17.0354 24.3158 16.6578C25.3304 16.799 26.2778 16.799 27.1579 16.6578C26.9738 16.234 27.1053 15.9183 27.5526 15.7105C27.7277 15.8826 27.8856 15.8826 28.0263 15.7105C27.8386 15.5638 27.6281 15.5112 27.3947 15.5526C27.0804 14.4871 27.2383 14.3818 27.8684 15.2368C27.996 15.1882 28.1013 15.1092 28.1842 14.9999C28.0743 14.765 28.1271 14.5282 28.3421 14.2894C28.5065 14.6827 28.638 14.6827 28.7368 14.2894C28.9907 14.7279 29.3329 15.0964 29.7632 15.3947C29.8685 15.2368 29.9736 15.0789 30.0789 14.921C30.2867 15.3202 30.471 15.3202 30.6316 14.921C30.7089 15.1252 30.7353 15.3358 30.7105 15.5526C31.2886 15.5857 31.8412 15.4806 32.3684 15.2368C33.2683 15.5409 34.1894 15.6198 35.1316 15.4736C34.6625 15.3483 34.1888 15.2429 33.7105 15.1578C34.2565 14.8863 34.8092 14.6494 35.3684 14.4473C35.4338 14.5195 35.5127 14.5722 35.6053 14.6052C35.874 14.303 36.1898 14.0662 36.5526 13.8947C36.9624 13.859 37.3571 13.78 37.7368 13.6578C38.0485 13.681 38.3643 13.7338 38.6842 13.8157C38.8527 13.7066 39.0369 13.6277 39.2368 13.5789C39.1315 13.5263 39.0264 13.4736 38.9211 13.421C39.1238 13.313 39.3081 13.3394 39.4737 13.4999C39.5692 13.1872 39.7271 13.1344 39.9474 13.342C41.9162 12.776 43.9424 12.434 46.0263 12.3157C46.1092 12.2065 46.2145 12.1275 46.3421 12.0789C47.6559 11.953 48.9453 11.5845 50.2105 10.9736C50.5781 10.9754 50.9465 10.9754 51.3158 10.9736C51.4246 10.8383 51.5561 10.7332 51.7105 10.6578C51.9737 10.8683 52.2368 10.8683 52.5 10.6578C52.7845 10.9 53.0739 10.9528 53.3684 10.8157C53.688 10.8631 53.7669 10.9946 53.6053 11.2105C53.9918 11.5736 53.8865 11.7841 53.2895 11.842C53.5333 11.8878 53.7437 11.993 53.9211 12.1578C53.6719 12.3378 53.4088 12.4168 53.1316 12.3947C53.3285 12.6382 53.3285 12.875 53.1316 13.1052C53.2623 13.2497 53.4202 13.3548 53.6053 13.421C53.1399 13.4387 52.9295 13.6755 52.9737 14.1315C52.8076 14.108 52.6497 14.1342 52.5 14.2105C52.0497 14.5504 51.9707 14.9452 52.2632 15.3947C52.4211 15.3421 52.5789 15.2894 52.7368 15.2368C52.7894 14.7631 53.0526 14.4999 53.5263 14.4473C53.6313 15.1555 53.3419 15.6292 52.6579 15.8684C52.5076 16.4327 52.2971 16.9589 52.0263 17.4473Z" fill="white"/>
<path fill-rule="evenodd" clip-rule="evenodd" d="M13.6579 11.1315C13.9517 11.996 14.1624 12.8906 14.2895 13.8157C14.3406 14.8979 14.2881 15.9506 14.1316 16.9736C14.2821 15.2889 14.0716 13.6574 13.5 12.0789C13.3456 12.1542 13.2141 12.2594 13.1053 12.3947C12.9737 12.2368 12.8421 12.0789 12.7105 11.921C12.3231 12.1741 12.0073 12.4899 11.7632 12.8684C11.9155 12.1424 12.2313 11.5108 12.7105 10.9736C13.1049 10.5388 13.4207 10.5915 13.6579 11.1315Z" fill="white"/>
<path fill-rule="evenodd" clip-rule="evenodd" d="M58.8158 8.44732C58.8158 8.39474 58.8158 8.34201 58.8158 8.28943C58.9211 8.28943 59.0263 8.28943 59.1316 8.28943C60.5594 10.0331 61.9279 11.8226 63.2368 13.6578C63.0796 13.6714 62.9481 13.6187 62.8421 13.5C61.5349 11.7759 60.1928 10.0918 58.8158 8.44732Z" fill="white"/>
<path fill-rule="evenodd" clip-rule="evenodd" d="M76.5 8.60531C76.7087 8.57847 76.893 8.63105 77.0526 8.76321C77.3286 9.26247 77.6444 9.73616 78 10.1843C78.6322 11.2358 78.9742 12.3937 79.0263 13.6579C78.6218 12.4644 78.1219 11.3066 77.5263 10.1843C77.1433 9.68042 76.8011 9.154 76.5 8.60531Z" fill="white"/>
<path fill-rule="evenodd" clip-rule="evenodd" d="M45.5526 11.2894C44.9144 11.5637 44.2301 11.7216 43.5 11.7631C43.5175 11.6657 43.5701 11.5867 43.6579 11.5263C44.2911 11.4472 44.9226 11.3682 45.5526 11.2894Z" fill="white"/>
<path fill-rule="evenodd" clip-rule="evenodd" d="M14.1316 16.9737C14.1316 17.1841 14.1316 17.3948 14.1316 17.6052C14.079 17.6052 14.0263 17.6052 13.9737 17.6052C13.6762 17.6387 13.4657 17.7966 13.3421 18.0789C13.167 17.9068 13.0091 17.9068 12.8684 18.0789C12.9862 18.2741 13.0388 18.4847 13.0263 18.7105C12.8176 18.7373 12.6333 18.6848 12.4737 18.5526C12.2277 17.942 11.9381 17.363 11.6053 16.8158C11.5729 15.4947 11.6256 14.1789 11.7632 12.8684C12.0073 12.4899 12.3231 12.1741 12.7105 11.921C12.8421 12.0789 12.9737 12.2368 13.1053 12.3947C13.2141 12.2594 13.3456 12.1542 13.5 12.0789C14.0716 13.6574 14.2821 15.2889 14.1316 16.9737Z" fill="white"/>
<path fill-rule="evenodd" clip-rule="evenodd" d="M21.3947 13.1842C21.3947 13.0263 21.3947 12.8684 21.3947 12.7105C21.0687 12.7132 20.7529 12.7658 20.4474 12.8684C20.604 12.6275 20.8408 12.5221 21.1579 12.5526C21.8045 12.5692 21.8834 12.7797 21.3947 13.1842Z" fill="white"/>
<path fill-rule="evenodd" clip-rule="evenodd" d="M65.4474 16.1842C65.2895 16.0789 65.1316 15.9737 64.9737 15.8684C64.5141 15.0401 63.9351 14.3032 63.2368 13.6579C61.9279 11.8227 60.5594 10.0331 59.1316 8.28947C59.0836 8.18684 59.031 8.08153 58.9737 7.97368C58.6315 7.92111 58.2895 7.86837 57.9474 7.81579C56.4491 8.04347 54.9491 8.25395 53.4474 8.44737C54.6668 8.04253 55.93 7.72674 57.2368 7.5C57.903 7.69642 58.5608 7.69642 59.2105 7.5C59.5263 7.71047 59.8421 7.92111 60.1579 8.13158C60.2353 8.33574 60.2616 8.54637 60.2368 8.76316C60.403 8.73963 60.5608 8.76584 60.7105 8.84211C60.8569 9.567 61.278 10.0407 61.9737 10.2632C61.9015 10.3285 61.8488 10.4075 61.8158 10.5C62.1927 11.223 62.6664 11.8808 63.2368 12.4737C63.1647 12.5391 63.112 12.618 63.079 12.7105C63.3136 12.9951 63.4715 13.3108 63.5526 13.6579C63.8828 13.6292 64.1986 13.6819 64.5 13.8158C64.6386 14.2108 64.8493 14.5528 65.1316 14.8421C65.004 14.8907 64.8987 14.9697 64.8158 15.0789C65.0863 15.4206 65.2967 15.789 65.4474 16.1842Z" fill="white"/>
<path fill-rule="evenodd" clip-rule="evenodd" d="M5.60526 12.7106C5.60526 12.7631 5.60526 12.8159 5.60526 12.8685C5.63447 13.1362 5.76616 13.3467 6 13.5C6.078 13.758 6.10421 14.0212 6.07895 14.2895C5.81574 14.2895 5.55268 14.2895 5.28947 14.2895C5.00274 14.034 4.79226 13.7182 4.6579 13.3421C4.60847 12.9084 4.66105 12.4873 4.81579 12.079C5.082 12.2932 5.34505 12.5037 5.60526 12.7106Z" fill="white"/>
<path fill-rule="evenodd" clip-rule="evenodd" d="M8.60526 13.1842C9.135 13.3981 9.50353 13.7667 9.71053 14.2894C9.93331 14.9907 10.2227 15.6748 10.5789 16.3421C10.6576 16.8658 10.6839 17.3921 10.6579 17.921C8.88931 17.7595 7.75784 16.8121 7.26316 15.0789C7.18231 14.1207 7.05063 13.1733 6.86842 12.2368C7.44316 12.5455 8.022 12.8613 8.60526 13.1842Z" fill="white"/>
<path fill-rule="evenodd" clip-rule="evenodd" d="M5.60526 12.8684C5.71058 12.921 5.81574 12.9737 5.92105 13.0263C6.31231 13.473 6.47021 13.9993 6.39474 14.6053C6.13153 14.6053 5.86847 14.6053 5.60526 14.6053C5.44737 14.5527 5.34205 14.4474 5.28947 14.2895C5.55268 14.2895 5.81574 14.2895 6.07895 14.2895C6.10421 14.0212 6.078 13.758 6 13.5C5.76616 13.3467 5.63447 13.1362 5.60526 12.8684Z" fill="white"/>
<path fill-rule="evenodd" clip-rule="evenodd" d="M21.3947 13.1843C21.0101 14.0958 20.3259 14.5695 19.3421 14.6053C19.2973 14.3029 19.3498 14.0399 19.5 13.8158C19.6053 13.2896 19.9211 12.9738 20.4474 12.8685C20.7529 12.7658 21.0687 12.7133 21.3947 12.7106C21.3947 12.8685 21.3947 13.0264 21.3947 13.1843Z" fill="white"/>
<path fill-rule="evenodd" clip-rule="evenodd" d="M19.5 13.8158C19.99 13.4656 20.5164 13.2024 21.079 13.0264C21.111 13.3248 21.0058 13.5616 20.7632 13.7369C20.3867 14.0372 19.9656 14.2215 19.5 14.2895C19.5 14.1316 19.5 13.9737 19.5 13.8158Z" fill="white"/>
<path fill-rule="evenodd" clip-rule="evenodd" d="M58.8158 8.44741C60.1928 10.0919 61.5349 11.776 62.8421 13.5C62.9481 13.6188 63.0796 13.6715 63.2368 13.6579C63.2698 13.8825 63.3488 14.0929 63.4737 14.2895C63.9398 14.8578 64.4397 15.3842 64.9737 15.8685C65.0653 16.2236 65.2757 16.4866 65.6053 16.6579C66.1604 17.5579 66.792 18.4 67.5 19.1842C67.7648 19.5064 68.028 19.8221 68.2895 20.1316C68.7794 20.8504 69.3057 21.5347 69.8684 22.1842C70.1332 22.5064 70.3964 22.8221 70.6579 23.1316C71.1335 23.7692 71.6072 24.4008 72.0789 25.0264C72.2842 25.4893 72.6 25.8578 73.0263 26.1316C73.4367 26.9097 73.9629 27.5939 74.6053 28.1842C75.1844 28.8959 75.7371 29.6326 76.2632 30.3948C76.3852 30.6872 76.3063 30.8978 76.0263 31.0264C70.2922 23.7934 64.4765 16.6354 58.5789 9.55267C58.4193 9.64046 58.2878 9.74562 58.1842 9.86846C57.8252 9.60872 57.8252 9.37188 58.1842 9.15793C57.7631 9.00004 57.7631 8.84214 58.1842 8.68425C58.1316 8.63167 58.0789 8.57893 58.0263 8.52635C58.2843 8.44835 58.5475 8.42214 58.8158 8.44741Z" fill="white"/>
<path fill-rule="evenodd" clip-rule="evenodd" d="M63.2368 13.6578C63.935 14.3032 64.514 15.04 64.9737 15.8684C64.4397 15.3841 63.9398 14.8577 63.4737 14.2894C63.3488 14.0928 63.2698 13.8824 63.2368 13.6578Z" fill="white"/>
<path fill-rule="evenodd" clip-rule="evenodd" d="M60.3947 12.2369C60.1509 12.2689 59.9403 12.3743 59.7632 12.5527C59.4846 12.2719 59.1688 12.0615 58.8158 11.9211C58.6991 11.9004 58.5938 11.9268 58.5 12.0001C53.9695 17.4566 49.4959 22.9567 45.0789 28.5001C44.8912 28.6467 44.6807 28.6993 44.4474 28.6579C44.4638 28.3101 44.5689 27.9943 44.7632 27.7106C48.9813 22.4865 53.0866 17.1706 57.0789 11.7632C57.5762 11.1956 58.0762 10.6166 58.5789 10.0264C59.2178 10.7432 59.823 11.4801 60.3947 12.2369Z" fill="white"/>
<path fill-rule="evenodd" clip-rule="evenodd" d="M11.7632 12.8684C11.6256 14.1789 11.5729 15.4947 11.6053 16.8158C11.4489 15.8984 11.3964 14.951 11.4474 13.9737C11.3954 13.5429 11.5006 13.1744 11.7632 12.8684Z" fill="white"/>
<path fill-rule="evenodd" clip-rule="evenodd" d="M21.8684 15.0789C21.1258 15.069 20.389 15.1217 19.6579 15.2368C20.0222 14.9926 20.4431 14.8874 20.9211 14.921C21.2678 14.9218 21.5836 14.9744 21.8684 15.0789Z" fill="white"/>
<path fill-rule="evenodd" clip-rule="evenodd" d="M21.8684 15.0789C21.4336 16.2267 20.5915 17.0951 19.3421 17.6842C18.8274 17.808 18.3273 17.7816 17.8421 17.6053C17.6932 16.9033 17.9301 16.377 18.5526 16.0263C18.7882 15.5806 19.1567 15.3174 19.6579 15.2368C20.3889 15.1217 21.1258 15.069 21.8684 15.0789Z" fill="white"/>
<path fill-rule="evenodd" clip-rule="evenodd" d="M18.5526 16.0263C19.128 15.6509 19.7596 15.5193 20.4474 15.6315C20.2562 15.8073 20.2562 15.9915 20.4474 16.1842C19.9393 17.0919 19.1498 17.4603 18.0789 17.2894C18.1922 16.8437 18.3501 16.4226 18.5526 16.0263Z" fill="white"/>
<path fill-rule="evenodd" clip-rule="evenodd" d="M64.9737 15.8684C65.1316 15.9737 65.2895 16.0789 65.4474 16.1842C65.5437 16.3249 65.5963 16.4828 65.6053 16.6579C65.2757 16.4866 65.0653 16.2235 64.9737 15.8684Z" fill="white"/>
<path fill-rule="evenodd" clip-rule="evenodd" d="M9.71053 14.2894C10.0895 14.573 10.3527 14.9415 10.5 15.3947C10.8463 16.0886 11.0042 16.8255 10.9737 17.6052C10.9211 17.7631 10.8158 17.8684 10.6579 17.921C10.684 17.3921 10.6576 16.8658 10.579 16.3421C10.2227 15.6748 9.93332 14.9906 9.71053 14.2894Z" fill="white"/>
<path fill-rule="evenodd" clip-rule="evenodd" d="M15.5526 17.7632C15.3422 17.7632 15.1315 17.7632 14.9211 17.7632C14.817 17.2966 14.7644 16.823 14.7632 16.3422C14.8157 16.1317 14.8685 15.9211 14.9211 15.7106C15.5727 14.5868 16.5201 13.7974 17.7632 13.3422C17.7624 14.4222 17.5255 15.4748 17.0526 16.5001C16.7162 17.1269 16.2161 17.548 15.5526 17.7632Z" fill="white"/>
<path fill-rule="evenodd" clip-rule="evenodd" d="M6.71053 11.6052C6.95716 11.642 7.16763 11.7473 7.34211 11.921C7.71474 12.399 8.13584 12.8201 8.60526 13.1842C8.022 12.8613 7.44316 12.5455 6.86842 12.2368C7.05063 13.1733 7.18232 14.1206 7.26316 15.0789C7.75784 16.8121 8.88932 17.7595 10.6579 17.921C10.5262 18.1181 10.3157 18.2234 10.0263 18.2368C8.44516 17.6809 7.41884 16.5756 6.94737 14.921C6.7489 13.9312 6.66995 12.9312 6.71053 11.921C6.71053 11.8157 6.71053 11.7105 6.71053 11.6052Z" fill="white"/>
<path fill-rule="evenodd" clip-rule="evenodd" d="M4.02632 14.7632C4.62569 15.0425 5.25726 15.2793 5.92105 15.4737C6.43247 15.7478 6.801 16.1426 7.02632 16.6579C7.02632 16.9211 7.02632 17.1842 7.02632 17.4474C6.38937 17.4466 5.75779 17.394 5.13158 17.2895C5.079 17.2895 5.02626 17.2895 4.97369 17.2895C4.02537 16.7083 3.44653 15.8662 3.23684 14.7632C3.50005 14.7632 3.76311 14.7632 4.02632 14.7632Z" fill="white"/>
<path fill-rule="evenodd" clip-rule="evenodd" d="M79.0263 13.6578C79.129 13.7058 79.2343 13.7584 79.3421 13.8157C79.51 14.5035 79.6941 15.1877 79.8947 15.8684C80.0413 18.0899 79.9623 20.3005 79.6579 22.4999C79.5 22.4999 79.3421 22.4999 79.1842 22.4999C79.0926 23.075 79.0137 23.654 78.9474 24.2368C78.6392 24.5268 78.4813 24.8954 78.4737 25.342C78.2763 26.0913 77.829 26.6175 77.1316 26.921C77.68 25.8241 78.2326 24.7188 78.7895 23.6052C79.8346 20.2938 79.9135 16.978 79.0263 13.6578Z" fill="white"/>
<path fill-rule="evenodd" clip-rule="evenodd" d="M7.02632 16.6578C7.42689 16.9945 7.42689 17.3366 7.02632 17.6842C6.30647 17.8591 5.67489 17.7276 5.13158 17.2894C5.75779 17.3939 6.38937 17.4465 7.02632 17.4473C7.02632 17.1841 7.02632 16.921 7.02632 16.6578Z" fill="white"/>
<path fill-rule="evenodd" clip-rule="evenodd" d="M14.7632 16.3422C14.7644 16.823 14.817 17.2966 14.9211 17.7632C15.1315 17.7632 15.3422 17.7632 15.5526 17.7632C15.3103 17.9666 15.0472 17.9666 14.7632 17.7632C14.6642 17.6184 14.6114 17.4605 14.6053 17.2895C14.5587 16.9366 14.6114 16.6208 14.7632 16.3422Z" fill="white"/>
<path fill-rule="evenodd" clip-rule="evenodd" d="M11.6053 16.8158C11.9381 17.3631 12.2277 17.9421 12.4737 18.5526C12.6333 18.6848 12.8176 18.7374 13.0263 18.7105C13.0388 18.4847 12.9862 18.2741 12.8684 18.079C13.0091 17.9068 13.167 17.9068 13.3421 18.079C13.4657 17.7966 13.6762 17.6387 13.9737 17.6053C13.8461 18.3349 13.4514 18.8612 12.7895 19.1842C12.6676 19.1613 12.5623 19.1087 12.4737 19.0263C12.1375 18.5024 11.8481 17.9762 11.6053 17.4474C11.6053 17.2369 11.6053 17.0263 11.6053 16.8158Z" fill="white"/>
<path fill-rule="evenodd" clip-rule="evenodd" d="M4.02632 18.079C5.2219 18.1999 6.37974 18.4104 7.5 18.7106C6.53984 18.7083 5.59248 18.603 4.6579 18.3948C4.76053 18.9695 4.99737 19.4958 5.36842 19.9737C5.84811 20.4267 6.29542 20.9004 6.71053 21.3948C5.41121 20.6214 4.51642 19.5161 4.02632 18.079Z" fill="white"/>
<path fill-rule="evenodd" clip-rule="evenodd" d="M65.6053 16.6578C66.1315 17.2368 66.6579 17.8157 67.1842 18.3947C67.3328 18.6394 67.4379 18.9025 67.5 19.1842C66.792 18.3999 66.1604 17.5578 65.6053 16.6578Z" fill="white"/>
<path fill-rule="evenodd" clip-rule="evenodd" d="M16.1842 18.3948C15.9932 18.8506 15.6774 19.219 15.2368 19.5C15.0264 19.5 14.8157 19.5 14.6053 19.5C14.7325 19.3061 14.8904 19.1482 15.079 19.0264C15.4731 18.8558 15.8416 18.6452 16.1842 18.3948Z" fill="white"/>
<path fill-rule="evenodd" clip-rule="evenodd" d="M7.5 18.7106C8.86658 18.9746 9.86653 19.7115 10.5 20.9211C10.5 21.2369 10.5 21.5527 10.5 21.8685C9.77069 21.997 9.03379 22.0496 8.28947 22.0264C7.68521 21.9866 7.15895 21.7761 6.71053 21.3948C6.29542 20.9004 5.84811 20.4267 5.36842 19.9737C4.99737 19.4958 4.76053 18.9695 4.6579 18.3948C5.59247 18.603 6.53984 18.7084 7.5 18.7106Z" fill="white"/>
<path fill-rule="evenodd" clip-rule="evenodd" d="M21.0789 19.8158C20.4636 20.0718 19.8846 20.4139 19.3421 20.8421C18.3902 21.1589 17.4164 21.3957 16.4211 21.5527C16.0641 21.5623 15.7483 21.457 15.4737 21.2369C15.3613 20.773 15.4402 20.352 15.7105 19.9737C16.4447 19.7373 17.1289 19.3952 17.7632 18.9474C18.6052 18.8421 19.4474 18.8421 20.2895 18.9474C20.2369 19 20.1842 19.0527 20.1316 19.1053C20.5791 19.4501 20.7897 19.3712 20.7632 18.8684C21.0264 18.8684 21.2894 18.8684 21.5526 18.8684C21.4412 19.2114 21.2833 19.5272 21.0789 19.8158Z" fill="white"/>
<path fill-rule="evenodd" clip-rule="evenodd" d="M21.0789 19.8158C21.2833 19.5271 21.4412 19.2113 21.5526 18.8684C21.2894 18.8684 21.0264 18.8684 20.7632 18.8684C20.7897 19.3711 20.5791 19.4501 20.1316 19.1052C20.1842 19.0527 20.2369 18.9999 20.2895 18.9473C19.4474 18.842 18.6052 18.842 17.7632 18.9473C17.1289 19.3951 16.4447 19.7373 15.7105 19.9737C16.1274 19.3991 16.6536 18.9781 17.2895 18.7105C17.9498 18.4812 18.6341 18.3761 19.3421 18.3947C20.3132 18.3254 21.2079 18.536 22.0263 19.0263C21.8035 19.4074 21.4877 19.6707 21.0789 19.8158Z" fill="white"/>
<path fill-rule="evenodd" clip-rule="evenodd" d="M67.1842 18.3948C67.4891 18.7308 67.8313 19.0466 68.2105 19.3421C68.3443 19.6095 68.4758 19.8727 68.6053 20.1316C68.4999 20.1316 68.3948 20.1316 68.2895 20.1316C68.028 19.8221 67.7648 19.5064 67.5 19.1842C67.4379 18.9026 67.3328 18.6395 67.1842 18.3948Z" fill="white"/>
<path fill-rule="evenodd" clip-rule="evenodd" d="M27.0789 19.9737C27.9962 19.9442 28.8908 20.0495 29.7632 20.2895C29.8157 20.2895 29.8685 20.2895 29.9211 20.2895C30.0962 20.4142 30.3066 20.4932 30.5526 20.5264C30.4473 20.5789 30.3422 20.6317 30.2368 20.6842C30.3815 20.7281 30.4866 20.8071 30.5526 20.9211C29.3368 20.7491 28.179 20.4334 27.0789 19.9737Z" fill="white"/>
<path fill-rule="evenodd" clip-rule="evenodd" d="M56.7632 11.6053C56.9198 11.5782 57.0249 11.6309 57.0789 11.7632C53.0866 17.1706 48.9813 22.4865 44.7632 27.7106C44.6512 27.5678 44.4933 27.5153 44.2895 27.5527C45.7105 25.6579 47.1316 23.7632 48.5526 21.8685C49.7659 20.4439 50.9237 18.9703 52.0263 17.4474C53.6005 15.5039 55.1795 13.5566 56.7632 11.6053Z" fill="white"/>
<path fill-rule="evenodd" clip-rule="evenodd" d="M68.2895 20.1316C68.3948 20.1316 68.4999 20.1316 68.6053 20.1316C68.8653 20.601 69.1811 21.0221 69.5526 21.3947C69.7012 21.6395 69.8064 21.9025 69.8684 22.1842C69.3057 21.5346 68.7794 20.8503 68.2895 20.1316Z" fill="white"/>
<path fill-rule="evenodd" clip-rule="evenodd" d="M21.079 19.8158C20.568 20.3364 19.989 20.7837 19.3421 21.1579C18.2694 21.8157 17.1115 22.0262 15.8684 21.7895C15.4925 21.7543 15.2294 21.57 15.079 21.2368C15.0409 20.6812 15.2515 20.2603 15.7105 19.9737C15.4402 20.352 15.3613 20.773 15.4737 21.2368C15.7483 21.457 16.0641 21.5623 16.4211 21.5526C17.4164 21.3957 18.3902 21.1588 19.3421 20.8421C19.8846 20.4139 20.4636 20.0717 21.079 19.8158Z" fill="white"/>
<path fill-rule="evenodd" clip-rule="evenodd" d="M48.5526 21.8684C47.1316 23.7632 45.7105 25.6579 44.2895 27.5526C44.2448 27.6772 44.1658 27.7825 44.0526 27.8684C43.1882 26.1619 41.8988 24.8724 40.1842 24C37.0915 22.6083 33.8811 21.582 30.5526 20.9211C30.4866 20.8071 30.3815 20.7281 30.2368 20.6842C30.3422 20.6316 30.4473 20.5789 30.5526 20.5263C30.3066 20.4932 30.0962 20.4142 29.9211 20.2895C30.5365 20.265 31.1681 20.265 31.8158 20.2895C32.0954 20.3739 32.148 20.5056 31.9737 20.6842C32.7335 20.8375 33.4704 20.9428 34.1842 21C34.2478 21.2533 34.4583 21.4375 34.8158 21.5526C35.2944 21.4001 35.7944 21.4001 36.3158 21.5526C36.3606 21.9294 36.5185 22.0345 36.7895 21.8684C37.0876 22.2508 37.4034 22.2508 37.7368 21.8684C37.9107 22.1675 38.1212 22.2728 38.3684 22.1842C38.8882 22.4597 39.4408 22.6966 40.0263 22.8947C39.7884 23.0269 39.7094 23.2112 39.7895 23.4474C40.4766 23.7129 41.082 24.1077 41.6053 24.6316C42.1538 24.9843 42.7328 25.1422 43.3421 25.1053C43.5594 25.5068 43.7436 25.533 43.8947 25.1842C44.1464 25.4679 44.4622 25.6258 44.8421 25.6579C45.2882 25.5832 45.3407 25.3727 45 25.0263C44.7453 25.2035 44.5611 25.1245 44.4474 24.7895C44.7949 24.6248 45.1633 24.4931 45.5526 24.3947C45.3718 24.1751 45.3718 23.9646 45.5526 23.7632C45.8709 23.9536 46.1867 23.9536 46.5 23.7632C46.3696 23.613 46.3434 23.4551 46.4211 23.2895C46.4736 23.3421 46.5264 23.3948 46.5789 23.4474C47.2328 23.2146 47.6801 22.7673 47.9211 22.1053C48.1176 21.9804 48.3281 21.9014 48.5526 21.8684Z" fill="white"/>
<path fill-rule="evenodd" clip-rule="evenodd" d="M10.5 20.921C10.5526 20.921 10.6053 20.921 10.6579 20.921C10.7302 21.378 10.6249 21.7727 10.3421 22.1052C9.62842 22.2338 8.94411 22.2074 8.28947 22.0263C9.03379 22.0495 9.77069 21.9969 10.5 21.8684C10.5 21.5526 10.5 21.2368 10.5 20.921Z" fill="white"/>
<path fill-rule="evenodd" clip-rule="evenodd" d="M69.5526 21.3948C69.8575 21.7308 70.1997 22.0466 70.5789 22.3421C70.7127 22.6095 70.8442 22.8727 70.9737 23.1316C70.8684 23.1316 70.7632 23.1316 70.6579 23.1316C70.3964 22.8221 70.1332 22.5064 69.8684 22.1842C69.8064 21.9026 69.7012 21.6395 69.5526 21.3948Z" fill="white"/>
<path fill-rule="evenodd" clip-rule="evenodd" d="M70.6579 23.1316C70.7632 23.1316 70.8684 23.1316 70.9737 23.1316C71.2813 23.6244 71.6234 24.0981 72 24.5526C72.0763 24.7023 72.1025 24.8602 72.079 25.0263C71.6072 24.4007 71.1335 23.7692 70.6579 23.1316Z" fill="white"/>
<path fill-rule="evenodd" clip-rule="evenodd" d="M14.7632 23.7632C16.9412 23.9694 19.0991 23.9694 21.2368 23.7632C21.3897 24.0959 21.4424 24.4644 21.3947 24.8684C21.2327 24.6548 21.0223 24.4969 20.7632 24.3948C20.1635 24.2396 19.5319 24.1868 18.8684 24.2369C18.3313 24.0853 17.805 24.0853 17.2895 24.2369C16.626 24.1868 15.9944 24.2396 15.3947 24.3948C15.1352 24.4437 14.9773 24.6016 14.9211 24.8684C14.7682 24.5358 14.7155 24.1672 14.7632 23.7632Z" fill="white"/>
<path fill-rule="evenodd" clip-rule="evenodd" d="M52.3421 27.0789C52.1853 25.7393 52.1327 24.3708 52.1842 22.9736C52.6085 22.9477 53.0296 22.9741 53.4474 23.0526C53.0826 23.131 52.7143 23.1573 52.3421 23.1315C52.3421 24.3421 52.3421 25.5525 52.3421 26.7631C53.2369 26.7631 54.1315 26.7631 55.0263 26.7631C55.0263 25.4999 55.0263 24.2368 55.0263 22.9736C54.6734 23.0202 54.3576 22.9675 54.079 22.8157C54.4937 22.7223 54.9148 22.6697 55.3421 22.6578C55.3421 24.1315 55.3421 25.6053 55.3421 27.0789C54.3422 27.0789 53.3421 27.0789 52.3421 27.0789Z" fill="white"/>
<path fill-rule="evenodd" clip-rule="evenodd" d="M58.8158 11.921C59.1688 12.0614 59.4846 12.2719 59.7632 12.5526C59.9403 12.3742 60.151 12.2689 60.3947 12.2368C65.4976 18.6023 70.6555 24.9181 75.8684 31.1842C75.9243 31.6454 75.7664 32.0138 75.3947 32.2894C69.8097 25.5467 64.2834 18.7572 58.8158 11.921Z" fill="white"/>
<path fill-rule="evenodd" clip-rule="evenodd" d="M76.0263 31.0263C75.921 31.0263 75.8684 31.0789 75.8684 31.1842C70.6555 24.9181 65.4976 18.6023 60.3947 12.2368C59.823 11.48 59.2178 10.7431 58.579 10.0263C58.0762 10.6165 57.5762 11.1955 57.079 11.7631C57.025 11.6308 56.9198 11.5781 56.7632 11.6052C57.2965 11.0722 57.7702 10.4932 58.1842 9.8684C58.2878 9.74556 58.4193 9.6404 58.579 9.55261C64.4765 16.6353 70.2922 23.7933 76.0263 31.0263Z" fill="white"/>
<path fill-rule="evenodd" clip-rule="evenodd" d="M22.6579 24.079C23.3948 23.8685 24.1315 23.8685 24.8684 24.079C24.771 24.0965 24.6921 24.1491 24.6316 24.2369C24.5001 26.3442 24.5264 28.4494 24.7105 30.5527C24.8684 30.6316 25.0263 30.7106 25.1842 30.7895C24.1843 30.8948 23.1842 30.8948 22.1842 30.7895C22.4008 30.7261 22.6113 30.6471 22.8158 30.5527C22.9999 28.4494 23.0263 26.3442 22.8947 24.2369C22.8343 24.1491 22.7553 24.0965 22.6579 24.079Z" fill="white"/>
<path fill-rule="evenodd" clip-rule="evenodd" d="M72.079 25.0264C72.2362 25.0128 72.3677 25.0655 72.4737 25.1843C72.6981 25.4851 72.8823 25.8009 73.0263 26.1316C72.6 25.8579 72.2842 25.4893 72.079 25.0264Z" fill="white"/>
<path fill-rule="evenodd" clip-rule="evenodd" d="M60.5526 26.1316C60.09 26.2577 59.6163 26.3103 59.1316 26.2895C58.0202 25.8028 57.6254 24.9606 57.9474 23.7631C58.1245 23.4278 58.3614 23.1384 58.6579 22.8947C59.7917 22.5778 60.7129 22.8673 61.4211 23.7631C61.7226 24.7871 61.4332 25.5766 60.5526 26.1316Z" fill="white"/>
<path fill-rule="evenodd" clip-rule="evenodd" d="M10.5 22.9737C10.3715 23.3102 10.2925 23.6786 10.2632 24.079C10.2265 23.8837 10.1476 23.7258 10.0263 23.6053C9.00205 22.7109 8.02832 22.7634 7.10527 23.7632C6.99995 24.0264 6.99995 24.2895 7.10527 24.5527C8.04458 25.3864 9.0709 26.0969 10.1842 26.6843C10.4275 26.9007 10.6382 27.1376 10.8158 27.3948C10.9536 28.0687 11.0062 28.753 10.9737 29.4474C10.3104 30.6084 9.28405 31.1347 7.89474 31.0264C7.12548 31.0682 6.41495 30.884 5.76316 30.4737C5.37442 29.8355 5.37442 29.1776 5.76316 28.5001C6.387 30.4832 7.62379 31.0096 9.47369 30.079C9.91106 29.6461 9.96379 29.1724 9.63158 28.658C8.62184 27.7977 7.54295 27.0346 6.39474 26.3685C5.15811 24.7324 5.4739 23.4692 7.34211 22.579C8.10632 22.5117 8.86942 22.538 9.63158 22.658C9.99395 22.6654 10.2835 22.7705 10.5 22.9737Z" fill="white"/>
<path fill-rule="evenodd" clip-rule="evenodd" d="M13.1842 21.0789C13.1972 21.3556 13.0656 21.5135 12.7895 21.5526C12.3455 21.1086 11.8982 20.6613 11.4474 20.2105C11.316 20.1019 11.2108 20.1282 11.1316 20.2895C12.4161 22.3699 12.8634 24.633 12.4737 27.0789C12.3767 27.7066 12.1925 28.2854 11.9211 28.8158C12.2165 26.9321 12.2954 25.0373 12.1579 23.1316C11.9337 22.2818 11.5915 21.4923 11.1316 20.7631C10.6653 20.1118 10.1654 19.4802 9.63158 18.8684C9.52295 18.737 9.54931 18.6319 9.71053 18.5526C10.8559 19.3288 11.9086 20.2236 12.8684 21.2368C12.9763 21.1795 13.0816 21.1269 13.1842 21.0789Z" fill="white"/>
<path fill-rule="evenodd" clip-rule="evenodd" d="M18.8684 24.2369C18.8165 26.37 18.8691 28.4754 19.0263 30.5526C19.1799 30.6295 19.3378 30.7085 19.5 30.7895C18.5526 30.8948 17.6053 30.8948 16.6579 30.7895C16.8201 30.7085 16.9779 30.6295 17.1316 30.5526C17.2888 28.4754 17.3414 26.37 17.2895 24.2369C17.805 24.0853 18.3313 24.0853 18.8684 24.2369Z" fill="white"/>
<path fill-rule="evenodd" clip-rule="evenodd" d="M54.0789 22.8158C54.3576 22.9675 54.6734 23.0203 55.0263 22.9737C55.0263 24.2368 55.0263 25.5 55.0263 26.7632C54.1315 26.7632 53.2369 26.7632 52.3421 26.7632C52.3421 25.5526 52.3421 24.3422 52.3421 23.1316C52.7143 23.1573 53.0826 23.1311 53.4474 23.0526C53.0296 22.9742 52.6085 22.9478 52.1842 22.9737C52.1327 24.3709 52.1853 25.7394 52.3421 27.079C52.3326 27.1647 52.2801 27.2173 52.1842 27.2368C52.0266 25.7668 51.9739 24.2932 52.0263 22.8158C52.7105 22.8158 53.3948 22.8158 54.0789 22.8158Z" fill="white"/>
<path fill-rule="evenodd" clip-rule="evenodd" d="M73.0263 26.1316C73.5415 26.5214 73.989 26.9951 74.3684 27.5526C74.4933 27.7492 74.5723 27.9597 74.6053 28.1842C73.963 27.5939 73.4367 26.9097 73.0263 26.1316Z" fill="white"/>
<path fill-rule="evenodd" clip-rule="evenodd" d="M60.5526 26.1316C60.5351 26.229 60.4825 26.308 60.3947 26.3684C59.9421 26.4949 59.5209 26.4685 59.1316 26.2895C59.6163 26.3103 60.09 26.2577 60.5526 26.1316Z" fill="white"/>
<path fill-rule="evenodd" clip-rule="evenodd" d="M13.6579 26.2894C13.8772 27.0424 13.9825 27.8319 13.9737 28.6578C13.7544 27.9048 13.6491 27.1154 13.6579 26.2894Z" fill="white"/>
<path fill-rule="evenodd" clip-rule="evenodd" d="M14.6053 19.5C14.8157 19.5 15.0264 19.5 15.2368 19.5C14.9318 19.9525 14.6686 20.4262 14.4474 20.9211C14.0506 21.5334 13.8401 22.2175 13.8158 22.9737C13.6593 24.0494 13.6066 25.1547 13.6579 26.2895C13.6491 27.1154 13.7544 27.9049 13.9737 28.6579C14.0872 29.0154 14.1398 29.3837 14.1316 29.7632C13.8782 29.4505 13.6939 29.0822 13.5789 28.6579C13.089 25.9164 13.2733 23.2322 14.1316 20.6053C13.7387 20.6342 13.4229 20.7921 13.1842 21.0789C13.434 20.3552 13.9077 19.8289 14.6053 19.5Z" fill="white"/>
<path fill-rule="evenodd" clip-rule="evenodd" d="M13.1842 21.0789C13.4229 20.792 13.7387 20.6341 14.1316 20.6052C13.2733 23.2321 13.089 25.9163 13.5789 28.6578C13.6939 29.0821 13.8782 29.4505 14.1316 29.7631C14.2743 29.875 14.3269 30.0329 14.2895 30.2368C14.2895 30.3947 14.2895 30.5526 14.2895 30.7105C13.4474 30.7105 12.6052 30.7105 11.7632 30.7105C11.7639 30.0735 11.8165 29.4419 11.9211 28.8157C12.1925 28.2854 12.3767 27.7065 12.4737 27.0789C12.8634 24.6329 12.4161 22.3698 11.1316 20.2894C11.2108 20.1282 11.316 20.1018 11.4474 20.2105C11.8982 20.6613 12.3455 21.1086 12.7895 21.5526C13.0656 21.5134 13.1972 21.3555 13.1842 21.0789Z" fill="white"/>
<path fill-rule="evenodd" clip-rule="evenodd" d="M11.9211 28.8158C11.8165 29.442 11.7639 30.0736 11.7632 30.7105C12.6052 30.7105 13.4474 30.7105 14.2895 30.7105C14.2895 30.5526 14.2895 30.3947 14.2895 30.2368C14.4369 30.4055 14.4897 30.616 14.4474 30.8684C13.4474 30.8684 12.4473 30.8684 11.4474 30.8684C11.4355 30.1276 11.5934 29.4433 11.9211 28.8158Z" fill="white"/>
<path fill-rule="evenodd" clip-rule="evenodd" d="M34.1842 25.9737C34.2993 26.7047 34.3521 27.4416 34.3421 28.1842C33.6883 30.1599 32.2936 31.1073 30.1579 31.0263C26.9263 30.7208 25.6631 28.9839 26.3684 25.8158C26.9436 24.8733 27.7595 24.2154 28.8158 23.8421C30.8482 23.3345 32.5587 23.8344 33.9474 25.3421C34.0723 25.5387 34.1512 25.7491 34.1842 25.9737Z" fill="white"/>
<path fill-rule="evenodd" clip-rule="evenodd" d="M10.8158 31.9736C8.92105 32.079 7.02632 32.1841 5.13158 32.2894C4.93168 32.1963 4.72121 32.1173 4.5 32.0526C6.60458 31.9736 8.70995 31.9473 10.8158 31.9736Z" fill="white"/>
<path fill-rule="evenodd" clip-rule="evenodd" d="M5.28947 32.2894C7.00405 32.2913 8.68832 32.3966 10.3421 32.6052C9.50005 32.6052 8.65784 32.6052 7.81579 32.6052C7.81579 34.0788 7.81579 35.5526 7.81579 37.0263C8.607 37.0525 9.39647 37.0261 10.1842 36.9473C10.3745 36.7301 10.5849 36.546 10.8158 36.3947C11.0263 36.9737 11.0263 37.5525 10.8158 38.1315C10.6462 37.9128 10.4357 37.7287 10.1842 37.5789C9.39647 37.5001 8.607 37.4737 7.81579 37.5C7.81579 38.921 7.81579 40.3421 7.81579 41.7631C8.44737 41.7631 9.07895 41.7631 9.71053 41.7631C8.21542 41.9786 6.68921 42.084 5.13158 42.0789C5.17626 41.9543 5.25521 41.849 5.36842 41.7631C5.49789 38.5937 5.47168 35.4358 5.28947 32.2894Z" fill="white"/>
<path fill-rule="evenodd" clip-rule="evenodd" d="M10.8158 31.9736C10.9737 31.9736 11.1316 31.9736 11.2895 31.9736C11.4474 31.9736 11.6053 31.9736 11.7632 31.9736C11.8121 32.4809 11.7595 32.9546 11.6053 33.3947C11.3379 32.8923 10.917 32.6292 10.3421 32.6052C8.68832 32.3966 7.00405 32.2913 5.28947 32.2894C5.23689 32.2894 5.18416 32.2894 5.13158 32.2894C7.02632 32.1841 8.92105 32.0789 10.8158 31.9736Z" fill="white"/>
<path fill-rule="evenodd" clip-rule="evenodd" d="M35.4474 33.3948C33.658 33.5001 31.8684 33.6053 30.079 33.7106C29.9544 33.6659 29.8491 33.5869 29.7632 33.4737C31.6571 33.3948 33.5518 33.3684 35.4474 33.3948Z" fill="white"/>
<path fill-rule="evenodd" clip-rule="evenodd" d="M43.0263 33.5526C41.4714 33.501 39.9452 33.5535 38.4474 33.7105C38.3228 33.6658 38.2175 33.5869 38.1316 33.4736C39.7907 33.3434 41.4224 33.3696 43.0263 33.5526Z" fill="white"/>
<path fill-rule="evenodd" clip-rule="evenodd" d="M67.6579 33.7105C66.5526 33.5001 65.4474 33.5001 64.3421 33.7105C64.2038 33.7312 64.0985 33.6786 64.0263 33.5526C65.3948 33.3422 66.7631 33.3422 68.1316 33.5526C68.0013 33.6925 67.8434 33.7451 67.6579 33.7105Z" fill="white"/>
<path fill-rule="evenodd" clip-rule="evenodd" d="M35.4474 33.3948C35.7106 33.3948 35.9736 33.3948 36.2368 33.3948C36.4473 33.8685 36.4473 34.3421 36.2368 34.8158C36.0516 34.4994 35.7884 34.2626 35.4474 34.1053C34.6069 34.0265 33.7648 34.0001 32.9211 34.0264C32.8685 34.0264 32.8157 34.0264 32.7632 34.0264C32.0438 33.7197 31.2543 33.6146 30.3947 33.7106C30.2894 33.7106 30.1843 33.7106 30.0789 33.7106C31.8684 33.6052 33.6579 33.5001 35.4474 33.3948Z" fill="white"/>
<path fill-rule="evenodd" clip-rule="evenodd" d="M36.2368 33.3947C36.2463 33.309 36.2989 33.2564 36.3947 33.2368C36.6052 34.0263 36.6052 34.8158 36.3947 35.6052C36.2444 35.3613 36.1918 35.0981 36.2368 34.8158C36.4473 34.3421 36.4473 33.8684 36.2368 33.3947Z" fill="white"/>
<path fill-rule="evenodd" clip-rule="evenodd" d="M71.1316 34.0264C71.1763 34.1509 71.2552 34.2563 71.3684 34.3422C71.5094 34.1509 71.641 34.1509 71.7632 34.3422C71.6248 34.4607 71.467 34.5397 71.2895 34.579C71.497 34.7345 71.6548 34.9188 71.7632 35.1316C70.977 36.8852 70.9244 38.6746 71.6053 40.5001C71.4805 40.6752 71.4016 40.8856 71.3684 41.1316C71.1024 40.4634 70.7076 40.3583 70.1842 40.8158C69.9171 40.5223 69.6802 40.2065 69.4737 39.8685C69.4004 39.9623 69.3741 40.0676 69.3947 40.1843C69.1906 39.9724 69.0591 39.7092 69 39.3948C68.2863 36.9867 68.9968 35.1972 71.1316 34.0264Z" fill="white"/>
<path fill-rule="evenodd" clip-rule="evenodd" d="M38.4474 33.7105C39.9452 33.5536 41.4714 33.501 43.0263 33.5526C43.1842 33.5526 43.3421 33.5526 43.5 33.5526C42.9049 33.6357 42.4312 33.7936 42.0789 34.0263C41.7684 33.9886 41.4788 34.0412 41.2105 34.1842C41.1052 36.7631 41.1052 39.3422 41.2105 41.9211C41.4707 42.1132 41.7602 42.2447 42.0789 42.3158C40.7632 42.4211 39.4473 42.4211 38.1316 42.3158C38.4504 42.2447 38.7398 42.1132 39 41.9211C39.1053 39.2894 39.1053 36.6579 39 34.0263C38.8243 33.8992 38.6402 33.7939 38.4474 33.7105Z" fill="white"/>
<path fill-rule="evenodd" clip-rule="evenodd" d="M77.4474 34.0263C77.4974 34.6897 77.4447 35.3213 77.2895 35.921C76.9604 34.7245 76.1709 34.0667 74.9211 33.9473C73.6184 33.7188 72.5657 34.1136 71.7632 35.1315C71.6548 34.9187 71.4969 34.7344 71.2895 34.5789C71.4669 34.5396 71.6248 34.4606 71.7632 34.342C71.6409 34.1508 71.5094 34.1508 71.3684 34.342C71.2552 34.2562 71.1763 34.1508 71.1316 34.0263C73.2287 32.9968 75.3339 32.9968 77.4474 34.0263Z" fill="white"/>
<path fill-rule="evenodd" clip-rule="evenodd" d="M21.5526 33.7105C22.9977 33.5536 24.4713 33.501 25.9737 33.5526C28.9481 34.0268 29.6586 35.553 28.1053 38.1316C27.0429 38.8792 25.9639 38.9318 24.8684 38.2895C26.3905 37.7084 26.9432 36.6032 26.5263 34.9737C26.4529 34.7477 26.3212 34.5636 26.1316 34.4211C25.539 34.107 24.9074 33.9755 24.2368 34.0263C24.2105 36.6584 24.2368 39.2901 24.3158 41.9211C24.5512 42.1585 24.8406 42.2901 25.1842 42.3158C23.8685 42.4211 22.5526 42.4211 21.2368 42.3158C21.4513 42.1683 21.6619 42.0366 21.8684 41.9211C22.0519 39.264 22.0781 36.5798 21.9474 33.8684C21.8869 33.7806 21.8079 33.7281 21.7105 33.7105C21.6579 33.7105 21.6052 33.7105 21.5526 33.7105Z" fill="white"/>
<path fill-rule="evenodd" clip-rule="evenodd" d="M32.7632 34.0264C32.8157 34.0264 32.8685 34.0264 32.9211 34.0264C32.9211 35.2369 32.9211 36.4474 32.9211 37.6579C33.7203 37.6936 34.5098 37.6409 35.2895 37.5001C35.4673 37.7145 35.4673 37.9251 35.2895 38.1316C34.8741 37.9384 34.4266 37.8331 33.9474 37.8158C33.5526 37.8684 33.1579 37.9212 32.7632 37.9737C33.4708 38.0791 34.1552 38.1844 34.8158 38.2895C34.1842 38.2895 33.5526 38.2895 32.9211 38.2895C32.8685 38.2895 32.8157 38.2895 32.7632 38.2895C32.3739 37.8001 32.2161 37.2211 32.2895 36.5527C32.2715 36.1005 32.3504 35.6795 32.5263 35.2895C32.5789 36.0264 32.6316 36.7632 32.6842 37.5001C32.7632 36.3433 32.7894 35.1855 32.7632 34.0264Z" fill="white"/>
<path fill-rule="evenodd" clip-rule="evenodd" d="M81.0789 40.0264C82.0505 39.8956 83.0506 39.8167 84.0789 39.7895C83.8836 39.7529 83.7257 39.6739 83.6053 39.5527C83.7436 39.5734 83.8489 39.5208 83.9211 39.3948C83.5552 38.6928 83.2658 37.9559 83.0526 37.1843C82.974 36.8615 82.7897 36.6509 82.5 36.5527C82.317 36.3569 82.1591 36.1463 82.0263 35.9211C82.3585 35.1083 82.6743 34.2924 82.9737 33.4737C83.0289 33.2753 83.1343 33.2225 83.2895 33.3158C84.6902 35.9328 85.9797 38.5906 87.1579 41.2895C87.4262 41.8745 87.8736 42.2167 88.5 42.3158C87.0789 42.4212 85.6579 42.4212 84.2368 42.3158C84.5929 42.2443 84.8035 42.0338 84.8684 41.6843C84.7244 41.1589 84.5138 40.6589 84.2368 40.1843C83.1894 40.0268 82.1368 39.9743 81.0789 40.0264Z" fill="white"/>
<path fill-rule="evenodd" clip-rule="evenodd" d="M77.4474 34.0264C77.6545 34.7393 77.6545 35.4762 77.4474 36.2369C77.3214 36.1647 77.2688 36.0594 77.2895 35.9211C77.4447 35.3214 77.4974 34.6898 77.4474 34.0264Z" fill="white"/>
<path fill-rule="evenodd" clip-rule="evenodd" d="M56.2895 41.7632C55.602 42.055 54.8653 42.1603 54.0789 42.079C54.1457 41.7188 54.0404 41.4556 53.7632 41.2895C53.5399 40.9158 53.3293 40.521 53.1316 40.1053C52.0803 40.0263 51.0276 40.0001 49.9737 40.0263C50.9452 39.8956 51.9453 39.8167 52.9737 39.7895C52.7784 39.7529 52.6205 39.6739 52.5 39.5527C52.6574 39.5574 52.7627 39.4785 52.8158 39.3158C52.4012 38.4668 52.0328 37.5984 51.7105 36.7106C51.6313 36.5493 51.5261 36.523 51.3947 36.6316C51.3024 36.8372 51.1972 37.0215 51.0789 37.1842C51.0892 37.1151 51.063 37.0623 51 37.0263C50.9514 37.1539 50.8724 37.2592 50.7632 37.3421C50.7221 37.1203 50.6695 36.9098 50.6053 36.7106C51.0194 35.4616 51.5193 34.2512 52.1053 33.079C53.5708 35.9459 54.9655 38.8406 56.2895 41.7632Z" fill="white"/>
<path fill-rule="evenodd" clip-rule="evenodd" d="M19.3421 33.8684C19.2131 34.2582 19.1342 34.6792 19.1053 35.1316C19.0686 34.9362 18.9897 34.7783 18.8684 34.6579C17.8459 33.6852 16.767 33.6327 15.6316 34.5C15.5263 34.8158 15.5263 35.1316 15.6316 35.4473C16.7471 36.3606 17.9313 37.1763 19.1842 37.8947C19.4943 38.1238 19.7048 38.4132 19.8158 38.7631C19.6795 38.6111 19.5742 38.6111 19.5 38.7631C19.6277 39.0112 19.6805 39.2744 19.6579 39.5526C19.1054 39.5146 19.0528 39.6461 19.5 39.9473C19.149 40.0367 18.8332 40.1684 18.5526 40.3421C17.2355 39.2122 15.8408 38.1595 14.3684 37.1842C13.5712 35.6161 13.9134 34.3793 15.3947 33.4737C16.7095 33.3947 18.0253 33.3685 19.3421 33.3947C19.3421 33.5526 19.3421 33.7105 19.3421 33.8684Z" fill="white"/>
<path fill-rule="evenodd" clip-rule="evenodd" d="M30.3947 33.7105C31.2543 33.6145 32.0438 33.7197 32.7632 34.0263C32.7894 35.1854 32.7632 36.3432 32.6842 37.5C32.6316 36.7631 32.5789 36.0263 32.5263 35.2895C32.3504 35.6795 32.2715 36.1004 32.2895 36.5526C32.2161 37.221 32.374 37.8 32.7632 38.2895C32.7632 39.5 32.7632 40.7105 32.7632 41.921C33.5834 41.9717 34.3729 41.919 35.1316 41.7631C35.9487 41.5775 36.5275 41.1038 36.8684 40.3421C37.0007 40.3961 37.0535 40.5012 37.0263 40.6579C36.9268 41.2111 36.8215 41.7638 36.7105 42.3158C34.3947 42.4211 32.079 42.4211 29.7632 42.3158C30.082 42.2447 30.3714 42.1132 30.6316 41.921C30.7369 39.2894 30.7369 36.6579 30.6316 34.0263C30.5184 33.9404 30.4394 33.8351 30.3947 33.7105Z" fill="white"/>
<path fill-rule="evenodd" clip-rule="evenodd" d="M35.6053 36.5527C35.6147 36.4669 35.6673 36.4144 35.7632 36.3948C35.9736 37.4475 35.9736 38.5 35.7632 39.5527C35.6233 39.4224 35.5707 39.2645 35.6053 39.079C35.8157 38.2369 35.8157 37.3947 35.6053 36.5527Z" fill="white"/>
<path fill-rule="evenodd" clip-rule="evenodd" d="M50.6053 36.7106C50.6695 36.9098 50.7221 37.1203 50.7632 37.3422C50.8724 37.2593 50.9514 37.1539 51 37.0264C51.063 37.0624 51.0892 37.1151 51.0789 37.1843C50.8598 37.9903 50.5967 38.7798 50.2895 39.5527C51.0264 39.5527 51.7631 39.5527 52.5 39.5527C52.6205 39.6739 52.7784 39.7529 52.9737 39.7895C51.9453 39.8167 50.9452 39.8956 49.9737 40.0264C49.5172 40.6553 49.3593 41.3394 49.5 42.079C49.6579 42.1579 49.8158 42.2369 49.9737 42.3158C48.5 42.4212 47.0263 42.4212 45.5526 42.3158C45.1532 42.256 44.7848 42.1243 44.4474 41.9211C44.4568 41.8354 44.5094 41.7828 44.6053 41.7632C45.2092 42.0229 45.8408 42.1283 46.5 42.079C46.4626 41.8752 46.5152 41.7173 46.6579 41.6053C47.0861 42.3638 47.586 42.4164 48.1579 41.7632C48.9347 40.0518 49.7506 38.3675 50.6053 36.7106Z" fill="white"/>
<path fill-rule="evenodd" clip-rule="evenodd" d="M35.6053 36.5526C35.8157 37.3947 35.8157 38.2369 35.6053 39.0789C35.5 38.6578 35.2369 38.3948 34.8158 38.2895C34.1552 38.1843 33.4708 38.079 32.7632 37.9737C33.1579 37.9211 33.5526 37.8683 33.9474 37.8158C34.4266 37.833 34.8741 37.9383 35.2895 38.1316C35.4673 37.925 35.4673 37.7144 35.2895 37.5C35.5391 37.2407 35.6443 36.9249 35.6053 36.5526Z" fill="white"/>
<path fill-rule="evenodd" clip-rule="evenodd" d="M64.8158 39.0789C64.8253 39.1647 64.8778 39.2172 64.9737 39.2368C65.1827 37.4747 65.1827 35.7379 64.9737 34.0263C64.8494 33.773 64.639 33.6677 64.3421 33.7105C65.4474 33.5 66.5526 33.5 67.6579 33.7105C67.5006 33.6969 67.3691 33.7497 67.2632 33.8684C67.2106 36.7631 67.1578 39.6579 67.1053 42.5526C64.9374 40.5679 62.7532 38.6206 60.5526 36.7105C60.5432 36.6248 60.4906 36.5722 60.3947 36.5526C60.1858 38.262 60.1858 39.9462 60.3947 41.6052C60.499 42.1024 60.8147 42.3393 61.3421 42.3158C58.6053 42.4211 55.8684 42.4211 53.1316 42.3158C53.6274 42.1579 53.8378 41.8157 53.7632 41.2894C54.0404 41.4556 54.1457 41.7188 54.079 42.0789C54.8653 42.1602 55.602 42.0549 56.2895 41.7631C56.9548 42.389 57.6126 42.389 58.2632 41.7631C58.3618 38.9125 58.3618 36.0704 58.2632 33.2368C60.4311 35.2216 62.6152 37.1689 64.8158 39.0789Z" fill="white"/>
<path fill-rule="evenodd" clip-rule="evenodd" d="M64.9737 34.0264C65.1827 35.7379 65.1827 37.4748 64.9737 39.2369C64.8778 39.2173 64.8253 39.1647 64.8158 39.079C64.9727 37.4232 65.0255 35.7389 64.9737 34.0264Z" fill="white"/>
<path fill-rule="evenodd" clip-rule="evenodd" d="M60.5526 36.7105C60.3957 38.3136 60.3429 39.9451 60.3947 41.6052C60.1858 39.9462 60.1858 38.262 60.3947 36.5526C60.4906 36.5722 60.5432 36.6248 60.5526 36.7105Z" fill="white"/>
<path fill-rule="evenodd" clip-rule="evenodd" d="M43.5 33.5526C45.9572 33.999 46.5624 35.3147 45.3158 37.5C44.9875 37.8616 44.5928 38.1248 44.1316 38.2895C45.09 39.3143 45.9321 40.4196 46.6579 41.6052C46.5152 41.7172 46.4626 41.8751 46.5 42.0789C45.8408 42.1282 45.2092 42.0229 44.6053 41.7631C44.5094 41.7827 44.4568 41.8353 44.4474 41.921C43.4567 40.9408 42.7462 39.7828 42.3158 38.4473C41.817 38.1404 41.8959 37.9563 42.5526 37.8947C43.6797 36.9922 43.9165 35.9133 43.2632 34.6579C42.8815 34.4008 42.4868 34.1903 42.0789 34.0263C42.4312 33.7936 42.9049 33.6357 43.5 33.5526Z" fill="white"/>
<path fill-rule="evenodd" clip-rule="evenodd" d="M37.0263 40.6579C37.0535 40.5013 37.0007 40.3962 36.8684 40.3422C36.8886 40.0911 36.9939 39.8806 37.1842 39.7106C37.3827 40.0736 37.3299 40.3894 37.0263 40.6579Z" fill="white"/>
<path fill-rule="evenodd" clip-rule="evenodd" d="M82.0263 35.921C82.1591 36.1462 82.317 36.3568 82.5 36.5526C82.0876 37.5355 81.7192 38.5354 81.3947 39.5526C82.1316 39.5526 82.8684 39.5526 83.6053 39.5526C83.7257 39.6739 83.8836 39.7528 84.0789 39.7894C83.0506 39.8166 82.0505 39.8955 81.0789 40.0263C80.5909 40.6342 80.433 41.3183 80.6053 42.0789C80.7632 42.1579 80.921 42.2368 81.0789 42.3158C80.1316 42.4211 79.1842 42.4211 78.2368 42.3158C78.6369 42.2343 78.9789 42.05 79.2632 41.7631C80.0968 39.7798 81.0178 37.8325 82.0263 35.921Z" fill="white"/>
<path fill-rule="evenodd" clip-rule="evenodd" d="M32.7632 38.2894C32.8157 38.2894 32.8685 38.2894 32.9211 38.2894C32.9211 39.4473 32.9211 40.6053 32.9211 41.7631C33.658 41.7631 34.3947 41.7631 35.1316 41.7631C34.3729 41.919 33.5834 41.9717 32.7632 41.921C32.7632 40.7104 32.7632 39.5 32.7632 38.2894Z" fill="white"/>
<path fill-rule="evenodd" clip-rule="evenodd" d="M5.13158 42.079C6.68921 42.084 8.21542 41.9787 9.71053 41.7632C11.2227 41.6464 12.1964 40.8569 12.6316 39.3948C12.4749 40.3919 12.2907 41.3918 12.0789 42.3948C9.55216 42.4211 7.02584 42.3948 4.5 42.3158C4.72121 42.2511 4.93168 42.1721 5.13158 42.079Z" fill="white"/>
<path fill-rule="evenodd" clip-rule="evenodd" d="M69.3947 40.1842C69.374 40.0676 69.4004 39.9622 69.4737 39.8684C69.6802 40.2065 69.917 40.5223 70.1842 40.8158C70.7076 40.3582 71.1024 40.4634 71.3684 41.1316C71.4016 40.8856 71.4805 40.6751 71.6053 40.5C73.0803 42.363 74.7908 42.5737 76.7368 41.1316C77.1655 40.3983 77.4551 39.6089 77.6053 38.7632C78.2141 39.9924 78.0036 41.0187 76.9737 41.8421C76.6579 42 76.3421 42.1579 76.0263 42.3158C75.2839 42.4082 74.5734 42.5923 73.8947 42.8684C73.8684 42.921 73.8422 42.9738 73.8158 43.0263C74.4164 43.1029 74.9165 43.3661 75.3158 43.8158C75.2635 44.9721 74.6319 45.5511 73.421 45.5527C73.2368 45.5001 73.0527 45.4473 72.8684 45.3948C73.3326 45.2678 73.7537 45.0573 74.1316 44.7632C74.2696 44.4084 74.3223 44.04 74.2895 43.6579C73.056 43.7054 72.8455 43.3633 73.6579 42.6316C71.8228 42.5013 70.4018 41.6855 69.3947 40.1842Z" fill="white"/>
<path fill-rule="evenodd" clip-rule="evenodd" d="M19.8158 38.7632C20.3078 40.3854 19.7815 41.5696 18.2368 42.3158C16.8248 42.7079 15.4563 42.6027 14.1316 42.0001C13.9925 41.8883 13.8873 41.7566 13.8158 41.6053C13.8341 41.0748 13.8867 40.5485 13.9737 40.0264C13.9391 39.8408 13.9917 39.6829 14.1316 39.5527C14.6079 41.7111 15.8711 42.4216 17.9211 41.6843C18.3665 41.3462 18.5769 40.8987 18.5526 40.3422C18.8332 40.1685 19.149 40.0368 19.5 39.9474C19.0528 39.6462 19.1054 39.5146 19.6579 39.5527C19.6805 39.2745 19.6277 39.0113 19.5 38.7632C19.5742 38.6112 19.6795 38.6112 19.8158 38.7632Z" fill="white"/>
<path fill-rule="evenodd" clip-rule="evenodd" d="M39.7105 43.4999C38.2339 43.4895 36.7603 43.5423 35.2895 43.6578C36.1737 43.43 37.0947 43.3247 38.0526 43.3421C38.6342 43.3422 39.1868 43.3949 39.7105 43.4999Z" fill="white"/>
<path fill-rule="evenodd" clip-rule="evenodd" d="M39.7105 43.4999C41.7867 43.5014 43.734 43.9751 45.5526 44.921C45.658 45.0789 45.7631 45.2368 45.8684 45.3947C44.8857 45.1182 43.9645 44.6973 43.1053 44.1315C42.9474 44.1841 42.7895 44.2368 42.6316 44.2894C42.2882 44.1118 41.9196 44.0065 41.5263 43.9736C40.447 44.0365 39.3681 44.0891 38.2895 44.1315C36.9395 43.8153 35.571 43.7363 34.1842 43.8947C32.6094 44.2361 31.0304 44.5256 29.4474 44.7631C31.3214 44.1083 33.2687 43.7398 35.2895 43.6578C36.7603 43.5423 38.2339 43.4895 39.7105 43.4999Z" fill="white"/>
<path fill-rule="evenodd" clip-rule="evenodd" d="M85.6579 49.1842C84.5665 49.2973 83.5138 49.5077 82.5 49.8158C82.2895 49.8158 82.0789 49.8158 81.8684 49.8158C80.2326 49.848 78.6009 49.7954 76.9737 49.6579C75.9897 49.593 75.0949 49.2772 74.2895 48.7105C73.7717 48.2533 73.6928 47.7269 74.0526 47.1316C74.9511 46.3765 75.9774 45.9291 77.1316 45.7895C80.0891 45.2462 83.0365 45.2987 85.9737 45.9474C86.5715 46.1673 87.1503 46.4304 87.7105 46.7369C88.1866 47.4711 88.0287 48.0501 87.2368 48.4737C86.7125 48.727 86.1862 48.9638 85.6579 49.1842Z" fill="white"/>
<path fill-rule="evenodd" clip-rule="evenodd" d="M45.5526 44.921C46.1119 45.0797 46.6118 45.3428 47.0526 45.7105C50.7201 46.4321 54.4306 46.6953 58.1842 46.5C58.1842 46.5525 58.1842 46.6053 58.1842 46.6579C57.9737 46.6579 57.7631 46.6579 57.5526 46.6579C54.3253 46.7678 51.1146 46.6099 47.9211 46.1842C47.1878 46.0545 46.5036 45.7915 45.8684 45.3947C45.7631 45.2368 45.6579 45.0789 45.5526 44.921Z" fill="white"/>
<path fill-rule="evenodd" clip-rule="evenodd" d="M68.4474 46.5C65.0255 46.505 61.6044 46.5576 58.1842 46.6579C58.1842 46.6053 58.1842 46.5526 58.1842 46.5C61.6307 46.3148 65.0517 46.3148 68.4474 46.5Z" fill="white"/>
<path fill-rule="evenodd" clip-rule="evenodd" d="M45.8684 45.3947C46.5036 45.7915 47.1878 46.0545 47.9211 46.1842C48.6248 46.4193 49.3617 46.6035 50.1316 46.7368C52.6325 46.8675 55.1061 46.8412 57.5526 46.6579C57.7631 46.6579 57.9737 46.6579 58.1842 46.6579C61.6044 46.5576 65.0255 46.505 68.4474 46.5C69.5152 46.4769 70.4626 46.7927 71.2895 47.4473C71.4714 47.8588 71.4976 48.2799 71.3684 48.7105C70.3454 50.6046 68.7928 51.8414 66.7105 52.421C63.675 53.3434 60.5698 53.8697 57.3947 54C51.4907 54.1811 45.5959 54.0232 39.7105 53.5263C36.3322 53.1827 33.0164 52.5511 29.7632 51.6315C27.7001 50.9062 26.0422 49.6694 24.7895 47.921C24.6842 47.6578 24.6842 47.3947 24.7895 47.1315C25.1468 46.5969 25.5943 46.1496 26.1316 45.7894C27.2106 45.3748 28.3159 45.0326 29.4474 44.7631C31.0304 44.5256 32.6094 44.2361 34.1842 43.8947C35.571 43.7363 36.9395 43.8153 38.2895 44.1315C39.3681 44.0891 40.447 44.0365 41.5263 43.9736C41.9196 44.0065 42.2882 44.1118 42.6316 44.2894C42.7895 44.2369 42.9474 44.1841 43.1053 44.1315C43.9645 44.6973 44.8857 45.1182 45.8684 45.3947Z" fill="white"/>
<path fill-rule="evenodd" clip-rule="evenodd" d="M38.2895 44.2895C38.7366 44.3842 39.1839 44.4895 39.6316 44.6053C39.825 44.5481 40.0091 44.4692 40.1842 44.3684C40.821 44.3132 41.4264 44.2868 42 44.2895C42.3388 44.9192 42.8389 45.3403 43.5 45.5527C43.6053 46.1842 43.7105 46.1842 43.8158 45.5527C43.9737 45.5527 44.1316 45.5527 44.2895 45.5527C44.205 45.985 44.3629 46.2745 44.7632 46.4211C45.2738 46.4527 45.7475 46.5842 46.1842 46.8158C46.3506 46.7874 46.5085 46.7348 46.6579 46.6579C46.8467 46.7125 46.8467 46.7915 46.6579 46.8948C46.9851 47.2339 47.2746 47.2077 47.5263 46.8158C47.9023 46.9634 48.297 47.016 48.7105 46.9737C48.6837 47.1824 48.7363 47.3667 48.8684 47.5263C49.1397 47.581 49.4029 47.6599 49.6579 47.7632C54.8209 47.9515 60.0314 47.9515 65.2895 47.7632C65.2895 47.9211 65.2895 48.079 65.2895 48.2369C65.8972 48.1609 66.213 48.4241 66.2368 49.0263C66.0513 48.9918 65.8934 49.0443 65.7632 49.1842C65.8926 49.4386 66.1033 49.5439 66.3947 49.5C66.4445 49.7725 66.4707 50.0358 66.4737 50.2895C66.0264 50.5263 65.6842 50.8685 65.4474 51.3158C62.3676 52.3529 59.2097 52.8002 55.9737 52.6579C54.3412 52.8951 52.7095 53.0002 51.0789 52.9737C49.7469 52.8995 48.4312 52.7416 47.1316 52.5C46.9211 52.5526 46.7105 52.6053 46.5 52.6579C43.0882 52.3968 39.6671 52.2125 36.2368 52.1053C35.2661 51.6638 34.2662 51.5059 33.2368 51.6316C32.4891 51.2659 31.6996 51.0291 30.8684 50.9211C30.5992 50.6364 30.3098 50.5312 30 50.6053C29.5742 50.1777 29.0743 49.8883 28.5 49.7369C28.0581 49.4017 27.7423 48.9805 27.5526 48.4737C27.4029 48.3974 27.2451 48.3712 27.0789 48.3948C27.0452 48.1352 27.0979 47.8983 27.2368 47.6842C27.1315 47.5789 27.0264 47.4738 26.9211 47.3684C27.6587 46.8097 28.422 46.3096 29.2105 45.8684C29.2991 45.9509 29.4044 46.0034 29.5263 46.0263C30.3264 45.8579 31.0633 45.5421 31.7368 45.079C31.8587 45.1019 31.9641 45.1544 32.0526 45.2369C33.6633 44.956 35.2686 44.6928 36.8684 44.4474C37.2698 44.461 37.6645 44.5137 38.0526 44.6053C38.2153 44.5522 38.2942 44.4469 38.2895 44.2895Z" fill="white"/>
<path fill-rule="evenodd" clip-rule="evenodd" d="M47.9211 46.1842C51.1146 46.6099 54.3253 46.7678 57.5526 46.6579C55.1061 46.8412 52.6325 46.8676 50.1316 46.7368C49.3617 46.6036 48.6248 46.4193 47.9211 46.1842Z" fill="white"/>
<path fill-rule="evenodd" clip-rule="evenodd" d="M80.1316 45.8684C81.1031 45.6863 82.103 45.66 83.1316 45.7894C83.004 45.8381 82.8987 45.917 82.8158 46.0263C83.616 46.1771 84.4055 46.3612 85.1842 46.5789C85.3622 46.8557 85.52 47.1453 85.6579 47.4473C84.6399 48.4305 83.4295 49.0883 82.0263 49.421C80.6578 49.5263 79.2895 49.5263 77.921 49.421C77.247 48.9573 76.5101 48.6415 75.7105 48.4736C75.8158 48.4211 75.921 48.3683 76.0263 48.3157C75.8266 48.1046 75.7476 47.8678 75.7895 47.6052C76.2505 47.3472 76.698 47.0578 77.1316 46.7368C78.7877 46.5369 80.4194 46.2737 82.0263 45.9473C81.3969 45.8685 80.7654 45.8422 80.1316 45.8684Z" fill="white"/>
<path fill-rule="evenodd" clip-rule="evenodd" d="M85.6579 49.1842C84.6703 49.6134 83.6176 49.8238 82.5 49.8158C83.5138 49.5077 84.5665 49.2973 85.6579 49.1842Z" fill="white"/>
<path fill-rule="evenodd" clip-rule="evenodd" d="M76.9737 49.658C78.6009 49.7955 80.2326 49.8481 81.8684 49.8159C80.4752 49.9985 79.0541 50.0249 77.6053 49.8948C77.3593 49.8616 77.1488 49.7827 76.9737 49.658Z" fill="white"/>
</g>
<defs>
<clipPath id="clip0_5_1434">
<rect width="90.4737" height="54" fill="white"/>
</clipPath>
</defs>
</svg>
