<svg width="24" height="24" viewBox="0 0 24 24" fill="none" xmlns="http://www.w3.org/2000/svg">
<path d="M20.25 16.6066V7.39356C20.7618 7.2624 21.2298 6.99816 21.6064 6.62765C21.9831 6.25714 22.255 5.79356 22.3945 5.28398C22.534 4.77441 22.5362 4.23698 22.4009 3.72628C22.2655 3.21557 21.9975 2.74978 21.6239 2.37619C21.2503 2.0026 20.7845 1.73452 20.2738 1.59918C19.7631 1.46383 19.2256 1.46604 18.7161 1.60557C18.2065 1.7451 17.7429 2.01699 17.3724 2.39364C17.0019 2.77028 16.7376 3.23826 16.6065 3.75006H7.3935C7.26235 3.23826 6.9981 2.77028 6.62759 2.39364C6.25708 2.01699 5.7935 1.7451 5.28393 1.60557C4.77435 1.46604 4.23692 1.46383 3.72622 1.59918C3.21552 1.73452 2.74972 2.0026 2.37613 2.37619C2.00254 2.74978 1.73447 3.21557 1.59912 3.72628C1.46377 4.23698 1.46598 4.77441 1.60551 5.28398C1.74504 5.79356 2.01694 6.25714 2.39358 6.62765C2.77022 6.99816 3.2382 7.2624 3.75 7.39356V16.6066C3.2382 16.7377 2.77022 17.002 2.39358 17.3725C2.01694 17.743 1.74504 18.2066 1.60551 18.7161C1.46598 19.2257 1.46377 19.7631 1.59912 20.2738C1.73447 20.7845 2.00254 21.2503 2.37613 21.6239C2.74972 21.9975 3.21552 22.2656 3.72622 22.4009C4.23692 22.5363 4.77435 22.5341 5.28393 22.3945C5.7935 22.255 6.25708 21.9831 6.62759 21.6065C6.9981 21.2298 7.26235 20.7619 7.3935 20.2501H16.6065C16.7376 20.7619 17.0019 21.2298 17.3724 21.6065C17.7429 21.9831 18.2065 22.255 18.7161 22.3945C19.2256 22.5341 19.7631 22.5363 20.2738 22.4009C20.7845 22.2656 21.2503 21.9975 21.6239 21.6239C21.9975 21.2503 22.2655 20.7845 22.4009 20.2738C22.5362 19.7631 22.534 19.2257 22.3945 18.7161C22.255 18.2066 21.9831 17.743 21.6064 17.3725C21.2298 17.002 20.7618 16.7377 20.25 16.6066ZM19.5 3.00006C19.7967 3.00006 20.0867 3.08803 20.3334 3.25285C20.58 3.41767 20.7723 3.65194 20.8858 3.92603C20.9993 4.20012 21.0291 4.50172 20.9712 4.79269C20.9133 5.08366 20.7704 5.35094 20.5607 5.56072C20.3509 5.77049 20.0836 5.91336 19.7926 5.97123C19.5017 6.02911 19.2001 5.99941 18.926 5.88587C18.6519 5.77234 18.4176 5.58008 18.2528 5.33341C18.088 5.08674 18 4.79673 18 4.50006C18 4.10223 18.158 3.7207 18.4393 3.4394C18.7206 3.15809 19.1022 3.00006 19.5 3.00006ZM3 4.50006C3 4.20338 3.08797 3.91337 3.25279 3.6667C3.41762 3.42003 3.65188 3.22777 3.92597 3.11424C4.20006 3.0007 4.50166 2.971 4.79263 3.02888C5.08361 3.08676 5.35088 3.22962 5.56066 3.4394C5.77044 3.64917 5.9133 3.91645 5.97118 4.20742C6.02905 4.49839 5.99935 4.79999 5.88582 5.07408C5.77229 5.34817 5.58003 5.58244 5.33335 5.74726C5.08668 5.91208 4.79667 6.00006 4.5 6.00006C4.10217 6.00006 3.72064 5.84202 3.43934 5.56072C3.15803 5.27941 3 4.89788 3 4.50006ZM4.5 21.0001C4.20333 21.0001 3.91332 20.9121 3.66664 20.7473C3.41997 20.5824 3.22771 20.3482 3.11418 20.0741C3.00065 19.8 2.97094 19.4984 3.02882 19.2074C3.0867 18.9164 3.22956 18.6492 3.43934 18.4394C3.64912 18.2296 3.91639 18.0868 4.20736 18.0289C4.49833 17.971 4.79993 18.0007 5.07402 18.1142C5.34811 18.2278 5.58238 18.42 5.7472 18.6667C5.91202 18.9134 6 19.2034 6 19.5001C6 19.8979 5.84196 20.2794 5.56066 20.5607C5.27935 20.842 4.89782 21.0001 4.5 21.0001ZM16.6065 18.7501H7.3935C7.25872 18.2346 6.98912 17.7644 6.6124 17.3877C6.23568 17.0109 5.76543 16.7413 5.25 16.6066V7.39356C5.76543 7.25878 6.23568 6.98918 6.6124 6.61246C6.98912 6.23574 7.25872 5.76549 7.3935 5.25006H16.6065C16.7413 5.76549 17.0109 6.23574 17.3876 6.61246C17.7643 6.98918 18.2346 7.25878 18.75 7.39356V16.6066C18.2342 16.7406 17.7636 17.01 17.3868 17.3868C17.0099 17.7636 16.7406 18.2343 16.6065 18.7501ZM19.5 21.0001C19.2033 21.0001 18.9133 20.9121 18.6666 20.7473C18.42 20.5824 18.2277 20.3482 18.1142 20.0741C18.0006 19.8 17.9709 19.4984 18.0288 19.2074C18.0867 18.9164 18.2296 18.6492 18.4393 18.4394C18.6491 18.2296 18.9164 18.0868 19.2074 18.0289C19.4983 17.971 19.7999 18.0007 20.074 18.1142C20.3481 18.2278 20.5824 18.42 20.7472 18.6667C20.912 18.9134 21 19.2034 21 19.5001C20.9994 19.8977 20.8412 20.2789 20.56 20.5601C20.2788 20.8412 19.8976 20.9995 19.5 21.0001Z" fill="#084734"/>
</svg>
