<svg width="39" height="30" viewBox="0 0 39 30" xmlns="http://www.w3.org/2000/svg">
<path d="M39 14.625C39 15.056 38.8288 15.4693 38.524 15.774C38.2193 16.0788 37.806 16.25 37.375 16.25H1.625C1.19402 16.25 0.780698 16.0788 0.475952 15.774C0.171205 15.4693 0 15.056 0 14.625C0 14.194 0.171205 13.7807 0.475952 13.476C0.780698 13.1712 1.19402 13 1.625 13H37.375C37.806 13 38.2193 13.1712 38.524 13.476C38.8288 13.7807 39 14.194 39 14.625ZM1.625 3.25H37.375C37.806 3.25 38.2193 3.07879 38.524 2.77405C38.8288 2.4693 39 2.05598 39 1.625C39 1.19402 38.8288 0.780698 38.524 0.475952C38.2193 0.171205 37.806 0 37.375 0H1.625C1.19402 0 0.780698 0.171205 0.475952 0.475952C0.171205 0.780698 0 1.19402 0 1.625C0 2.05598 0.171205 2.4693 0.475952 2.77405C0.780698 3.07879 1.19402 3.25 1.625 3.25ZM37.375 26H1.625C1.19402 26 0.780698 26.1712 0.475952 26.476C0.171205 26.7807 0 27.194 0 27.625C0 28.056 0.171205 28.4693 0.475952 28.774C0.780698 29.0788 1.19402 29.25 1.625 29.25H37.375C37.806 29.25 38.2193 29.0788 38.524 28.774C38.8288 28.4693 39 28.056 39 27.625C39 27.194 38.8288 26.7807 38.524 26.476C38.2193 26.1712 37.806 26 37.375 26Z" fill="#fffce0"/>
</svg>
