<svg width="24" height="25" viewBox="0 0 24 25" fill="none" xmlns="http://www.w3.org/2000/svg">
<path d="M12 10.9375C10.9391 10.9375 9.92172 10.5259 9.17157 9.79339C8.42143 9.06082 8 8.06725 8 7.03125C8 5.99525 8.42143 5.00168 9.17157 4.26911C9.92172 3.53655 10.9391 3.125 12 3.125C13.0609 3.125 14.0783 3.53655 14.8284 4.26911C15.5786 5.00168 16 5.99525 16 7.03125C16 8.06725 15.5786 9.06082 14.8284 9.79339C14.0783 10.5259 13.0609 10.9375 12 10.9375ZM12 4.6875C10.672 4.6875 9.6 5.73438 9.6 7.03125C9.6 8.32812 10.672 9.375 12 9.375C13.328 9.375 14.4 8.32812 14.4 7.03125C14.4 5.73438 13.328 4.6875 12 4.6875Z" fill="#084734"/>
<path d="M21.6 17.1875C21.152 17.1875 20.8 16.8438 20.8 16.4062C20.8 15.9688 21.152 15.625 21.6 15.625C22.048 15.625 22.4 15.2812 22.4 14.8438C22.4 13.8077 21.9786 12.8142 21.2284 12.0816C20.4783 11.3491 19.4609 10.9375 18.4 10.9375H16.8C16.352 10.9375 16 10.5938 16 10.1562C16 9.71875 16.352 9.375 16.8 9.375C18.128 9.375 19.2 8.32812 19.2 7.03125C19.2 5.73438 18.128 4.6875 16.8 4.6875C16.352 4.6875 16 4.34375 16 3.90625C16 3.46875 16.352 3.125 16.8 3.125C17.8609 3.125 18.8783 3.53655 19.6284 4.26911C20.3786 5.00168 20.8 5.99525 20.8 7.03125C20.8 8 20.448 8.875 19.84 9.5625C22.224 10.1875 24 12.3125 24 14.8438C24 16.1406 22.928 17.1875 21.6 17.1875ZM2.4 17.1875C1.072 17.1875 0 16.1406 0 14.8438C0 12.3125 1.76 10.1875 4.16 9.5625C3.568 8.875 3.2 8 3.2 7.03125C3.2 5.99525 3.62143 5.00168 4.37157 4.26911C5.12172 3.53655 6.13913 3.125 7.2 3.125C7.648 3.125 8 3.46875 8 3.90625C8 4.34375 7.648 4.6875 7.2 4.6875C5.872 4.6875 4.8 5.73438 4.8 7.03125C4.8 8.32812 5.872 9.375 7.2 9.375C7.648 9.375 8 9.71875 8 10.1562C8 10.5938 7.648 10.9375 7.2 10.9375H5.6C4.53913 10.9375 3.52172 11.3491 2.77157 12.0816C2.02143 12.8142 1.6 13.8077 1.6 14.8438C1.6 15.2812 1.952 15.625 2.4 15.625C2.848 15.625 3.2 15.9688 3.2 16.4062C3.2 16.8438 2.848 17.1875 2.4 17.1875ZM16.8 21.875H7.2C5.872 21.875 4.8 20.8281 4.8 19.5312V17.9688C4.8 14.9531 7.312 12.5 10.4 12.5H13.6C16.688 12.5 19.2 14.9531 19.2 17.9688V19.5312C19.2 20.8281 18.128 21.875 16.8 21.875ZM10.4 14.0625C9.33913 14.0625 8.32172 14.4741 7.57157 15.2066C6.82143 15.9392 6.4 16.9327 6.4 17.9688V19.5312C6.4 19.9688 6.752 20.3125 7.2 20.3125H16.8C17.248 20.3125 17.6 19.9688 17.6 19.5312V17.9688C17.6 16.9327 17.1786 15.9392 16.4284 15.2066C15.6783 14.4741 14.6609 14.0625 13.6 14.0625H10.4Z" fill="#084734"/>
</svg>
