<svg width="50" height="46" viewBox="0 0 50 46" fill="none" xmlns="http://www.w3.org/2000/svg">
<path d="M24.8125 17.9375C17.5548 17.9375 11.4223 24.2751 9.44229 32.4151C8.57146 35.9947 9.88458 39.7943 13.1078 41.5795C15.663 42.9946 19.4638 44.2917 24.8125 44.2917C30.1613 44.2917 33.9631 42.9946 36.5183 41.5795C39.7416 39.7943 41.0535 35.9947 40.1827 32.4151C38.2027 24.274 32.0702 17.9375 24.8125 17.9375ZM0.75 16.1546C0.75 19.3194 2.80104 22.5208 5.33333 22.5208C7.86563 22.5208 9.91667 19.3194 9.91667 16.1546C9.91667 12.9898 7.86563 11.0625 5.33333 11.0625C2.80104 11.0625 0.75 12.9909 0.75 16.1546ZM48.875 16.1546C48.875 19.3194 46.824 22.5208 44.2917 22.5208C41.7594 22.5208 39.7083 19.3194 39.7083 16.1546C39.7083 12.9898 41.7594 11.0625 44.2917 11.0625C46.824 11.0625 48.875 12.9909 48.875 16.1546ZM12.7813 5.84208C12.7813 9.00688 14.8323 12.2083 17.3646 12.2083C19.8969 12.2083 21.9479 9.00688 21.9479 5.84208C21.9479 2.67729 19.8969 0.75 17.3646 0.75C14.8323 0.75 12.7813 2.67844 12.7813 5.84208ZM36.8438 5.84208C36.8438 9.00688 34.7927 12.2083 32.2604 12.2083C29.7281 12.2083 27.6771 9.00688 27.6771 5.84208C27.6771 2.67729 29.7281 0.75 32.2604 0.75C34.7927 0.75 36.8438 2.67844 36.8438 5.84208Z" stroke="#E9F7F2" stroke-width="1.5" stroke-linecap="round" stroke-linejoin="round"/>
</svg>
