<svg width="24" height="24" viewBox="0 0 24 24" fill="none" xmlns="http://www.w3.org/2000/svg">
<path d="M18 18.7501L8.25 18.7501C8.05109 18.7501 7.86032 18.671 7.71967 18.5304C7.57902 18.3897 7.5 18.199 7.5 18.0001C7.5 17.8011 7.57902 17.6104 7.71967 17.4697C7.86032 17.3291 8.05109 17.2501 8.25 17.2501L16.1897 17.2501L5.46938 6.53068C5.32864 6.38995 5.24958 6.19907 5.24958 6.00005C5.24958 5.80103 5.32864 5.61016 5.46938 5.46943C5.61011 5.3287 5.80098 5.24963 6 5.24963C6.19902 5.24963 6.3899 5.3287 6.53063 5.46943L17.25 16.1897L17.25 8.25005C17.25 8.05114 17.329 7.86037 17.4697 7.71972C17.6103 7.57907 17.8011 7.50005 18 7.50005C18.1989 7.50005 18.3897 7.57907 18.5303 7.71972C18.671 7.86037 18.75 8.05114 18.75 8.25005L18.75 18.0001C18.75 18.199 18.671 18.3897 18.5303 18.5304C18.3897 18.671 18.1989 18.7501 18 18.7501Z" fill="white"/>
</svg>
